<?xml version="1.0" encoding="utf-8"?>
<!-- Generator: Adobe Illustrator 16.0.0, SVG Export Plug-In . SVG Version: 6.00 Build 0)  -->
<!DOCTYPE svg PUBLIC "-//W3C//DTD SVG 1.1//EN" "http://www.w3.org/Graphics/SVG/1.1/DTD/svg11.dtd">
<svg version="1.1" xmlns="http://www.w3.org/2000/svg" xmlns:xlink="http://www.w3.org/1999/xlink" x="0px" y="0px"
	 width="696.265px" height="402.899px" viewBox="0 0 696.265 402.899" enable-background="new 0 0 696.265 402.899"
	 xml:space="preserve">
<g id="BG">
	<rect x="68.265" y="29.065" fill="#B1C0C9" width="628" height="327.333"/>
</g>
<g id="Grid">
	<line fill="none" stroke="#FFFFFF" stroke-miterlimit="10" x1="68.265" y1="75.065" x2="696.265" y2="75.065"/>
	<line fill="none" stroke="#FFFFFF" stroke-miterlimit="10" x1="68.265" y1="122.065" x2="696.265" y2="122.065"/>
	<line fill="none" stroke="#FFFFFF" stroke-miterlimit="10" x1="68.265" y1="168.065" x2="696.265" y2="168.065"/>
	<line fill="none" stroke="#FFFFFF" stroke-miterlimit="10" x1="68.265" y1="216.065" x2="696.265" y2="216.065"/>
	<line fill="none" stroke="#FFFFFF" stroke-miterlimit="10" x1="68.265" y1="262.065" x2="696.265" y2="262.065"/>
	<line fill="none" stroke="#FFFFFF" stroke-miterlimit="10" x1="68.265" y1="311.065" x2="696.265" y2="311.065"/>
	<line fill="none" stroke="#FFFFFF" stroke-miterlimit="10" x1="136.265" y1="29.065" x2="136.265" y2="356.065"/>
	<line fill="none" stroke="#FFFFFF" stroke-miterlimit="10" x1="206.265" y1="29.065" x2="206.265" y2="356.065"/>
	<line fill="none" stroke="#FFFFFF" stroke-miterlimit="10" x1="276.265" y1="29.065" x2="276.265" y2="356.065"/>
	<line fill="none" stroke="#FFFFFF" stroke-miterlimit="10" x1="346.265" y1="29.065" x2="346.265" y2="356.065"/>
	<line fill="none" stroke="#FFFFFF" stroke-miterlimit="10" x1="417.265" y1="29.065" x2="417.265" y2="356.065"/>
	<line fill="none" stroke="#FFFFFF" stroke-miterlimit="10" x1="486.265" y1="29.065" x2="486.265" y2="356.065"/>
	<line fill="none" stroke="#FFFFFF" stroke-miterlimit="10" x1="558.265" y1="29.065" x2="558.265" y2="356.065"/>
	<line fill="none" stroke="#FFFFFF" stroke-miterlimit="10" x1="628.265" y1="29.065" x2="628.265" y2="356.065"/>
</g>
<g id="Blocks">
	<rect x="642.545" y="51.065" fill="#2B00E9" width="40" height="305"/>
	<rect x="572.545" y="124.399" fill="#2B00E9" width="40" height="231.667"/>
	<rect x="503.515" y="156.815" fill="#2B00E9" width="40" height="199.25"/>
	<rect x="432.515" y="236.565" fill="#2B00E9" width="40" height="119.5"/>
	<rect x="362.515" y="291.065" fill="#2B00E9" width="40" height="65"/>
	<rect x="291.515" y="340.565" fill="#2B00E9" width="40" height="15.5"/>
	<rect x="221.515" y="347.315" fill="#2B00E9" width="40" height="8.75"/>
	<rect x="150.515" y="352.982" fill="#2B00E9" width="40" height="3.083"/>
	<rect x="81.515" y="354.065" fill="#2B00E9" width="40" height="2"/>
</g>
<g id="Curve">
	<path fill="none" stroke="#000000" stroke-width="4" stroke-miterlimit="10" d="M190.515,352.982c0,0,117.8-22.672,234.083-90.917
		c104.83-61.523,207.055-165.469,244.667-228.998"/>
</g>
<g id="Text">
	<g>
		<path d="M651.853,362.851h-0.027l-1.737,0.826l-0.351-1.597l2.41-1.12h1.765v9.104h-2.06V362.851z"/>
		<path d="M656.766,367.684c0-1.093,0.63-1.85,1.625-2.283v-0.043c-0.883-0.447-1.317-1.19-1.317-1.988
			c0-1.541,1.387-2.563,3.208-2.563c2.129,0,3.012,1.232,3.012,2.339c0,0.784-0.42,1.555-1.316,2.003v0.042
			c0.882,0.337,1.667,1.093,1.667,2.27c0,1.653-1.388,2.76-3.502,2.76C657.83,370.219,656.766,368.916,656.766,367.684z
			 M661.472,367.613c0-0.799-0.588-1.274-1.429-1.499c-0.7,0.196-1.106,0.7-1.106,1.358c-0.014,0.659,0.49,1.275,1.289,1.275
			C660.981,368.748,661.472,368.258,661.472,367.613z M659.076,363.299c0,0.616,0.561,1.009,1.289,1.232
			c0.49-0.14,0.925-0.588,0.925-1.162c0-0.561-0.322-1.121-1.106-1.121C659.455,362.248,659.076,362.725,659.076,363.299z"/>
		<path d="M664.535,367.684c0-1.093,0.631-1.85,1.625-2.283v-0.043c-0.883-0.447-1.316-1.19-1.316-1.988
			c0-1.541,1.387-2.563,3.208-2.563c2.129,0,3.011,1.232,3.011,2.339c0,0.784-0.42,1.555-1.316,2.003v0.042
			c0.883,0.337,1.667,1.093,1.667,2.27c0,1.653-1.387,2.76-3.502,2.76C665.6,370.219,664.535,368.916,664.535,367.684z
			 M669.242,367.613c0-0.799-0.589-1.274-1.429-1.499c-0.701,0.196-1.106,0.7-1.106,1.358c-0.015,0.659,0.49,1.275,1.288,1.275
			C668.752,368.748,669.242,368.258,669.242,367.613z M666.847,363.299c0,0.616,0.561,1.009,1.289,1.232
			c0.49-0.14,0.924-0.588,0.924-1.162c0-0.561-0.322-1.121-1.106-1.121C667.225,362.248,666.847,362.725,666.847,363.299z"/>
		<path d="M679.169,365.47c0,2.815-1.135,4.749-3.46,4.749c-2.354,0-3.39-2.115-3.404-4.692c0-2.634,1.121-4.721,3.474-4.721
			C678.216,360.806,679.169,362.977,679.169,365.47z M674.448,365.526c-0.015,2.087,0.49,3.081,1.316,3.081s1.274-1.036,1.274-3.109
			c0-2.018-0.434-3.082-1.288-3.082C674.967,362.416,674.434,363.411,674.448,365.526z"/>
	</g>
	<g>
		<path d="M580.351,362.851h-0.028l-1.736,0.826l-0.351-1.597l2.409-1.12h1.765v9.104h-2.059V362.851z"/>
		<path d="M585.263,367.684c0-1.093,0.631-1.85,1.625-2.283v-0.043c-0.883-0.447-1.316-1.19-1.316-1.988
			c0-1.541,1.387-2.563,3.208-2.563c2.129,0,3.011,1.232,3.011,2.339c0,0.784-0.42,1.555-1.316,2.003v0.042
			c0.883,0.337,1.667,1.093,1.667,2.27c0,1.653-1.387,2.76-3.502,2.76C586.327,370.219,585.263,368.916,585.263,367.684z
			 M589.97,367.613c0-0.799-0.589-1.274-1.429-1.499c-0.7,0.196-1.106,0.7-1.106,1.358c-0.015,0.659,0.49,1.275,1.288,1.275
			C589.479,368.748,589.97,368.258,589.97,367.613z M587.574,363.299c0,0.616,0.561,1.009,1.289,1.232
			c0.49-0.14,0.924-0.588,0.924-1.162c0-0.561-0.322-1.121-1.106-1.121C587.952,362.248,587.574,362.725,587.574,363.299z"/>
		<path d="M598.986,362.473c-0.238-0.015-0.49,0-0.826,0.027c-1.892,0.154-2.731,1.121-2.97,2.186h0.042
			c0.448-0.462,1.078-0.729,1.933-0.729c1.527,0,2.815,1.079,2.815,2.97c0,1.807-1.387,3.292-3.361,3.292
			c-2.424,0-3.614-1.808-3.614-3.979c0-1.709,0.631-3.138,1.611-4.048c0.91-0.826,2.087-1.274,3.516-1.345
			c0.393-0.028,0.645-0.028,0.854-0.015V362.473z M597.823,367.039c0-0.841-0.448-1.569-1.358-1.569
			c-0.574,0-1.051,0.351-1.261,0.813c-0.056,0.112-0.084,0.28-0.084,0.532c0.042,0.967,0.504,1.835,1.471,1.835
			C597.348,368.649,597.823,367.963,597.823,367.039z"/>
		<path d="M607.47,360.96v1.345l-3.754,7.76h-2.255l3.754-7.326v-0.027h-4.174v-1.751H607.47z"/>
	</g>
	<g>
		<path d="M511.347,362.851h-0.028l-1.737,0.826l-0.35-1.597l2.409-1.12h1.765v9.104h-2.059V362.851z"/>
		<path d="M516.259,367.684c0-1.093,0.631-1.85,1.625-2.283v-0.043c-0.883-0.447-1.316-1.19-1.316-1.988
			c0-1.541,1.387-2.563,3.207-2.563c2.129,0,3.012,1.232,3.012,2.339c0,0.784-0.42,1.555-1.316,2.003v0.042
			c0.883,0.337,1.667,1.093,1.667,2.27c0,1.653-1.388,2.76-3.502,2.76C517.323,370.219,516.259,368.916,516.259,367.684z
			 M520.966,367.613c0-0.799-0.589-1.274-1.43-1.499c-0.699,0.196-1.105,0.7-1.105,1.358c-0.015,0.659,0.49,1.275,1.288,1.275
			C520.476,368.748,520.966,368.258,520.966,367.613z M518.569,363.299c0,0.616,0.561,1.009,1.289,1.232
			c0.49-0.14,0.925-0.588,0.925-1.162c0-0.561-0.322-1.121-1.106-1.121C518.948,362.248,518.569,362.725,518.569,363.299z"/>
		<path d="M529.981,362.473c-0.238-0.015-0.49,0-0.826,0.027c-1.891,0.154-2.73,1.121-2.969,2.186h0.041
			c0.449-0.462,1.079-0.729,1.934-0.729c1.527,0,2.815,1.079,2.815,2.97c0,1.807-1.387,3.292-3.362,3.292
			c-2.423,0-3.613-1.808-3.613-3.979c0-1.709,0.631-3.138,1.611-4.048c0.91-0.826,2.086-1.274,3.516-1.345
			c0.393-0.028,0.645-0.028,0.854-0.015V362.473z M528.819,367.039c0-0.841-0.448-1.569-1.359-1.569c-0.574,0-1.05,0.351-1.26,0.813
			c-0.057,0.112-0.084,0.28-0.084,0.532c0.041,0.967,0.504,1.835,1.471,1.835C528.343,368.649,528.819,367.963,528.819,367.039z"/>
		<path d="M532.316,367.978c0.378,0.196,1.247,0.561,2.115,0.561c1.106,0,1.667-0.533,1.667-1.219c0-0.896-0.896-1.303-1.835-1.303
			h-0.868v-1.527h0.826c0.715-0.014,1.625-0.28,1.625-1.051c0-0.546-0.448-0.952-1.345-0.952c-0.743,0-1.526,0.322-1.905,0.546
			l-0.434-1.54c0.546-0.351,1.639-0.687,2.814-0.687c1.947,0,3.026,1.022,3.026,2.269c0,0.967-0.546,1.724-1.667,2.115v0.028
			c1.092,0.196,1.975,1.022,1.975,2.213c0,1.611-1.414,2.788-3.726,2.788c-1.177,0-2.171-0.309-2.704-0.645L532.316,367.978z"/>
	</g>
	<g>
		<path d="M440.342,362.851h-0.027l-1.737,0.826l-0.351-1.597l2.41-1.12h1.765v9.104h-2.06V362.851z"/>
		<path d="M445.255,367.684c0-1.093,0.63-1.85,1.625-2.283v-0.043c-0.883-0.447-1.317-1.19-1.317-1.988
			c0-1.541,1.387-2.563,3.208-2.563c2.129,0,3.012,1.232,3.012,2.339c0,0.784-0.42,1.555-1.316,2.003v0.042
			c0.882,0.337,1.667,1.093,1.667,2.27c0,1.653-1.388,2.76-3.502,2.76C446.319,370.219,445.255,368.916,445.255,367.684z
			 M449.961,367.613c0-0.799-0.588-1.274-1.429-1.499c-0.7,0.196-1.106,0.7-1.106,1.358c-0.014,0.659,0.49,1.275,1.289,1.275
			C449.471,368.748,449.961,368.258,449.961,367.613z M447.565,363.299c0,0.616,0.561,1.009,1.289,1.232
			c0.49-0.14,0.925-0.588,0.925-1.162c0-0.561-0.322-1.121-1.106-1.121C447.944,362.248,447.565,362.725,447.565,363.299z"/>
		<path d="M453.543,367.978c0.378,0.196,1.247,0.561,2.115,0.561c1.106,0,1.667-0.533,1.667-1.219c0-0.896-0.896-1.303-1.835-1.303
			h-0.869v-1.527h0.827c0.714-0.014,1.625-0.28,1.625-1.051c0-0.546-0.448-0.952-1.345-0.952c-0.743,0-1.527,0.322-1.905,0.546
			l-0.435-1.54c0.547-0.351,1.639-0.687,2.815-0.687c1.947,0,3.026,1.022,3.026,2.269c0,0.967-0.547,1.724-1.667,2.115v0.028
			c1.092,0.196,1.975,1.022,1.975,2.213c0,1.611-1.415,2.788-3.726,2.788c-1.177,0-2.172-0.309-2.704-0.645L453.543,367.978z"/>
		<path d="M461.606,368.523c0.267,0.028,0.505,0.028,0.925,0c0.645-0.042,1.303-0.224,1.793-0.561
			c0.588-0.406,0.98-0.994,1.148-1.681l-0.042-0.014c-0.406,0.42-0.994,0.658-1.821,0.658c-1.54,0-2.843-1.078-2.843-2.844
			c0-1.778,1.429-3.277,3.432-3.277c2.339,0,3.445,1.793,3.445,3.922c0,1.891-0.602,3.277-1.597,4.188
			c-0.868,0.784-2.059,1.219-3.474,1.274c-0.364,0.028-0.729,0.014-0.967,0V368.523z M462.896,363.957
			c0,0.784,0.42,1.457,1.288,1.457c0.575,0,0.98-0.28,1.177-0.603c0.07-0.126,0.112-0.266,0.112-0.532
			c0-0.967-0.364-1.919-1.331-1.919C463.414,362.36,462.881,363.005,462.896,363.957z"/>
	</g>
	<g>
		<path d="M371.338,362.851h-0.028l-1.736,0.826l-0.351-1.597l2.409-1.12h1.765v9.104h-2.059V362.851z"/>
		<path d="M376.25,367.684c0-1.093,0.631-1.85,1.625-2.283v-0.043c-0.883-0.447-1.316-1.19-1.316-1.988
			c0-1.541,1.387-2.563,3.208-2.563c2.129,0,3.011,1.232,3.011,2.339c0,0.784-0.42,1.555-1.316,2.003v0.042
			c0.883,0.337,1.667,1.093,1.667,2.27c0,1.653-1.387,2.76-3.502,2.76C377.314,370.219,376.25,368.916,376.25,367.684z
			 M380.957,367.613c0-0.799-0.589-1.274-1.429-1.499c-0.7,0.196-1.106,0.7-1.106,1.358c-0.015,0.659,0.49,1.275,1.288,1.275
			C380.467,368.748,380.957,368.258,380.957,367.613z M378.562,363.299c0,0.616,0.561,1.009,1.289,1.232
			c0.49-0.14,0.924-0.588,0.924-1.162c0-0.561-0.322-1.121-1.106-1.121C378.939,362.248,378.562,362.725,378.562,363.299z"/>
		<path d="M384.538,367.978c0.379,0.196,1.247,0.561,2.115,0.561c1.107,0,1.667-0.533,1.667-1.219c0-0.896-0.896-1.303-1.835-1.303
			h-0.868v-1.527h0.826c0.715-0.014,1.625-0.28,1.625-1.051c0-0.546-0.448-0.952-1.345-0.952c-0.742,0-1.526,0.322-1.905,0.546
			l-0.434-1.54c0.546-0.351,1.639-0.687,2.815-0.687c1.947,0,3.025,1.022,3.025,2.269c0,0.967-0.546,1.724-1.667,2.115v0.028
			c1.093,0.196,1.976,1.022,1.976,2.213c0,1.611-1.415,2.788-3.727,2.788c-1.177,0-2.171-0.309-2.703-0.645L384.538,367.978z"/>
		<path d="M398.009,362.711h-3.529l-0.196,1.4c0.196-0.028,0.364-0.028,0.588-0.028c0.869,0,1.751,0.196,2.396,0.658
			c0.687,0.463,1.106,1.219,1.106,2.283c0,1.695-1.456,3.194-3.908,3.194c-1.106,0-2.03-0.252-2.535-0.519l0.378-1.597
			c0.406,0.196,1.233,0.448,2.06,0.448c0.883,0,1.821-0.42,1.821-1.387c0-0.938-0.743-1.513-2.563-1.513
			c-0.505,0-0.854,0.027-1.232,0.084l0.602-4.776h5.015V362.711z"/>
	</g>
	<g>
		<path d="M300.333,362.851h-0.028l-1.737,0.826l-0.351-1.597l2.41-1.12h1.765v9.104h-2.059V362.851z"/>
		<path d="M305.246,367.684c0-1.093,0.63-1.85,1.625-2.283v-0.043c-0.883-0.447-1.317-1.19-1.317-1.988
			c0-1.541,1.387-2.563,3.208-2.563c2.129,0,3.011,1.232,3.011,2.339c0,0.784-0.42,1.555-1.316,2.003v0.042
			c0.882,0.337,1.667,1.093,1.667,2.27c0,1.653-1.387,2.76-3.502,2.76C306.311,370.219,305.246,368.916,305.246,367.684z
			 M309.953,367.613c0-0.799-0.588-1.274-1.429-1.499c-0.7,0.196-1.106,0.7-1.106,1.358c-0.014,0.659,0.49,1.275,1.289,1.275
			C309.462,368.748,309.953,368.258,309.953,367.613z M307.557,363.299c0,0.616,0.561,1.009,1.289,1.232
			c0.49-0.14,0.924-0.588,0.924-1.162c0-0.561-0.322-1.121-1.106-1.121C307.936,362.248,307.557,362.725,307.557,363.299z"/>
		<path d="M313.156,370.064v-1.289l1.177-1.064c1.988-1.778,2.955-2.801,2.983-3.866c0-0.742-0.448-1.33-1.499-1.33
			c-0.784,0-1.471,0.392-1.947,0.756l-0.603-1.526c0.687-0.519,1.751-0.938,2.984-0.938c2.059,0,3.193,1.204,3.193,2.857
			c0,1.526-1.106,2.745-2.423,3.922l-0.841,0.7v0.028h3.432v1.751H313.156z"/>
		<path d="M320.926,370.064v-1.289l1.177-1.064c1.988-1.778,2.955-2.801,2.983-3.866c0-0.742-0.448-1.33-1.499-1.33
			c-0.784,0-1.471,0.392-1.947,0.756l-0.603-1.526c0.687-0.519,1.751-0.938,2.984-0.938c2.059,0,3.193,1.204,3.193,2.857
			c0,1.526-1.106,2.745-2.423,3.922l-0.841,0.7v0.028h3.432v1.751H320.926z"/>
	</g>
	<g>
		<path d="M230.329,362.851h-0.028l-1.737,0.826l-0.351-1.597l2.41-1.12h1.765v9.104h-2.059V362.851z"/>
		<path d="M235.242,367.684c0-1.093,0.63-1.85,1.625-2.283v-0.043c-0.883-0.447-1.317-1.19-1.317-1.988
			c0-1.541,1.387-2.563,3.208-2.563c2.129,0,3.011,1.232,3.011,2.339c0,0.784-0.42,1.555-1.316,2.003v0.042
			c0.882,0.337,1.667,1.093,1.667,2.27c0,1.653-1.387,2.76-3.502,2.76C236.306,370.219,235.242,368.916,235.242,367.684z
			 M239.948,367.613c0-0.799-0.588-1.274-1.429-1.499c-0.7,0.196-1.106,0.7-1.106,1.358c-0.014,0.659,0.49,1.275,1.289,1.275
			C239.458,368.748,239.948,368.258,239.948,367.613z M237.553,363.299c0,0.616,0.561,1.009,1.289,1.232
			c0.49-0.14,0.924-0.588,0.924-1.162c0-0.561-0.322-1.121-1.106-1.121C237.931,362.248,237.553,362.725,237.553,363.299z"/>
		<path d="M249.875,365.47c0,2.815-1.135,4.749-3.46,4.749c-2.353,0-3.39-2.115-3.404-4.692c0-2.634,1.121-4.721,3.474-4.721
			C248.923,360.806,249.875,362.977,249.875,365.47z M245.155,365.526c-0.014,2.087,0.49,3.081,1.317,3.081
			c0.826,0,1.274-1.036,1.274-3.109c0-2.018-0.434-3.082-1.289-3.082C245.673,362.416,245.141,363.411,245.155,365.526z"/>
		<path d="M257.645,365.47c0,2.815-1.135,4.749-3.46,4.749c-2.353,0-3.39-2.115-3.404-4.692c0-2.634,1.121-4.721,3.474-4.721
			C256.692,360.806,257.645,362.977,257.645,365.47z M252.924,365.526c-0.014,2.087,0.49,3.081,1.317,3.081
			c0.826,0,1.274-1.036,1.274-3.109c0-2.018-0.434-3.082-1.289-3.082C253.443,362.416,252.91,363.411,252.924,365.526z"/>
	</g>
	<g>
		<path d="M160.325,362.851h-0.028l-1.737,0.826l-0.351-1.597l2.41-1.12h1.765v9.104h-2.059V362.851z"/>
		<path d="M171.905,360.96v1.345l-3.754,7.76h-2.255l3.754-7.326v-0.027h-4.174v-1.751H171.905z"/>
		<path d="M179.675,360.96v1.345l-3.754,7.76h-2.255l3.754-7.326v-0.027h-4.174v-1.751H179.675z"/>
		<path d="M186.996,362.711h-3.53l-0.196,1.4c0.196-0.028,0.364-0.028,0.588-0.028c0.869,0,1.751,0.196,2.396,0.658
			c0.686,0.463,1.106,1.219,1.106,2.283c0,1.695-1.457,3.194-3.908,3.194c-1.106,0-2.031-0.252-2.535-0.519l0.378-1.597
			c0.406,0.196,1.233,0.448,2.059,0.448c0.883,0,1.821-0.42,1.821-1.387c0-0.938-0.743-1.513-2.563-1.513
			c-0.504,0-0.854,0.027-1.232,0.084l0.602-4.776h5.015V362.711z"/>
	</g>
	<g>
		<path d="M88.32,362.851h-0.028l-1.737,0.826l-0.351-1.597l2.41-1.12h1.765v9.104H88.32V362.851z"/>
		<path d="M99.186,362.473c-0.238-0.015-0.49,0-0.826,0.027c-1.891,0.154-2.731,1.121-2.97,2.186h0.042
			c0.448-0.462,1.079-0.729,1.933-0.729c1.527,0,2.815,1.079,2.815,2.97c0,1.807-1.387,3.292-3.362,3.292
			c-2.423,0-3.614-1.808-3.614-3.979c0-1.709,0.63-3.138,1.611-4.048c0.91-0.826,2.087-1.274,3.516-1.345
			c0.392-0.028,0.645-0.028,0.854-0.015V362.473z M98.023,367.039c0-0.841-0.448-1.569-1.359-1.569c-0.574,0-1.05,0.351-1.26,0.813
			c-0.056,0.112-0.084,0.28-0.084,0.532c0.042,0.967,0.504,1.835,1.471,1.835C97.547,368.649,98.023,367.963,98.023,367.039z"/>
		<path d="M107.222,362.711h-3.53l-0.196,1.4c0.196-0.028,0.364-0.028,0.588-0.028c0.869,0,1.751,0.196,2.396,0.658
			c0.686,0.463,1.106,1.219,1.106,2.283c0,1.695-1.457,3.194-3.908,3.194c-1.106,0-2.031-0.252-2.535-0.519l0.378-1.597
			c0.406,0.196,1.233,0.448,2.059,0.448c0.883,0,1.821-0.42,1.821-1.387c0-0.938-0.743-1.513-2.563-1.513
			c-0.504,0-0.854,0.027-1.232,0.084l0.602-4.776h5.015V362.711z"/>
		<path d="M115.636,365.47c0,2.815-1.135,4.749-3.46,4.749c-2.353,0-3.39-2.115-3.404-4.692c0-2.634,1.121-4.721,3.474-4.721
			C114.684,360.806,115.636,362.977,115.636,365.47z M110.916,365.526c-0.014,2.087,0.49,3.081,1.317,3.081
			c0.826,0,1.274-1.036,1.274-3.109c0-2.018-0.434-3.082-1.289-3.082C111.434,362.416,110.901,363.411,110.916,365.526z"/>
	</g>
	<g>
		<path d="M20.52,262.065v-1.289l1.177-1.064c1.989-1.778,2.956-2.801,2.983-3.866c0-0.742-0.448-1.33-1.499-1.33
			c-0.785,0-1.471,0.392-1.947,0.756l-0.603-1.526c0.687-0.519,1.751-0.938,2.984-0.938c2.059,0,3.194,1.204,3.194,2.857
			c0,1.526-1.107,2.745-2.423,3.922l-0.841,0.7v0.028h3.432v1.751H20.52z"/>
		<path d="M27.729,263.732c0.435-1.247,0.813-2.703,1.009-3.979l2.171-0.14c-0.462,1.429-1.092,2.899-1.765,3.992L27.729,263.732z"
			/>
		<path d="M38.653,257.471c0,2.815-1.135,4.749-3.46,4.749c-2.353,0-3.39-2.115-3.404-4.692c0-2.634,1.121-4.721,3.474-4.721
			C37.701,252.807,38.653,254.978,38.653,257.471z M33.933,257.527c-0.014,2.087,0.49,3.081,1.317,3.081
			c0.826,0,1.274-1.036,1.274-3.109c0-2.018-0.434-3.082-1.289-3.082C34.451,254.417,33.919,255.412,33.933,257.527z"/>
		<path d="M46.423,257.471c0,2.815-1.135,4.749-3.46,4.749c-2.353,0-3.39-2.115-3.404-4.692c0-2.634,1.121-4.721,3.474-4.721
			C45.471,252.807,46.423,254.978,46.423,257.471z M41.703,257.527c-0.014,2.087,0.49,3.081,1.317,3.081
			c0.826,0,1.274-1.036,1.274-3.109c0-2.018-0.434-3.082-1.289-3.082C42.221,254.417,41.688,255.412,41.703,257.527z"/>
		<path d="M54.193,257.471c0,2.815-1.135,4.749-3.46,4.749c-2.353,0-3.39-2.115-3.404-4.692c0-2.634,1.121-4.721,3.474-4.721
			C53.241,252.807,54.193,254.978,54.193,257.471z M49.473,257.527c-0.014,2.087,0.49,3.081,1.317,3.081
			c0.826,0,1.274-1.036,1.274-3.109c0-2.018-0.434-3.082-1.289-3.082C49.991,254.417,49.459,255.412,49.473,257.527z"/>
	</g>
	<g>
		<path d="M20.898,213.979c0.378,0.196,1.247,0.561,2.115,0.561c1.107,0,1.667-0.533,1.667-1.219c0-0.896-0.896-1.303-1.835-1.303
			h-0.869v-1.527h0.827c0.714-0.014,1.625-0.28,1.625-1.051c0-0.546-0.448-0.952-1.345-0.952c-0.743,0-1.527,0.322-1.905,0.546
			l-0.434-1.54c0.546-0.351,1.639-0.687,2.815-0.687c1.947,0,3.026,1.022,3.026,2.269c0,0.967-0.546,1.724-1.667,2.115v0.028
			c1.092,0.196,1.975,1.022,1.975,2.213c0,1.611-1.415,2.788-3.726,2.788c-1.177,0-2.171-0.309-2.704-0.645L20.898,213.979z"/>
		<path d="M27.729,217.732c0.435-1.247,0.813-2.703,1.009-3.979l2.171-0.14c-0.462,1.429-1.092,2.899-1.765,3.992L27.729,217.732z"
			/>
		<path d="M38.653,211.471c0,2.815-1.135,4.749-3.46,4.749c-2.353,0-3.39-2.115-3.404-4.692c0-2.634,1.121-4.721,3.474-4.721
			C37.701,206.807,38.653,208.978,38.653,211.471z M33.933,211.527c-0.014,2.087,0.49,3.081,1.317,3.081
			c0.826,0,1.274-1.036,1.274-3.109c0-2.018-0.434-3.082-1.289-3.082C34.451,208.417,33.919,209.412,33.933,211.527z"/>
		<path d="M46.423,211.471c0,2.815-1.135,4.749-3.46,4.749c-2.353,0-3.39-2.115-3.404-4.692c0-2.634,1.121-4.721,3.474-4.721
			C45.471,206.807,46.423,208.978,46.423,211.471z M41.703,211.527c-0.014,2.087,0.49,3.081,1.317,3.081
			c0.826,0,1.274-1.036,1.274-3.109c0-2.018-0.434-3.082-1.289-3.082C42.221,208.417,41.688,209.412,41.703,211.527z"/>
		<path d="M54.193,211.471c0,2.815-1.135,4.749-3.46,4.749c-2.353,0-3.39-2.115-3.404-4.692c0-2.634,1.121-4.721,3.474-4.721
			C53.241,206.807,54.193,208.978,54.193,211.471z M49.473,211.527c-0.014,2.087,0.49,3.081,1.317,3.081
			c0.826,0,1.274-1.036,1.274-3.109c0-2.018-0.434-3.082-1.289-3.082C49.991,208.417,49.459,209.412,49.473,211.527z"/>
	</g>
	<g>
		<path d="M27.047,19.961v1.345l-3.754,7.76h-2.255l3.754-7.326v-0.027h-4.174v-1.751H27.047z"/>
		<path d="M27.729,30.732c0.435-1.247,0.813-2.703,1.009-3.979l2.171-0.14c-0.462,1.429-1.092,2.899-1.765,3.992L27.729,30.732z"/>
		<path d="M38.653,24.471c0,2.815-1.135,4.749-3.46,4.749c-2.353,0-3.39-2.115-3.404-4.692c0-2.634,1.121-4.721,3.474-4.721
			C37.701,19.807,38.653,21.978,38.653,24.471z M33.933,24.527c-0.014,2.087,0.49,3.081,1.317,3.081
			c0.826,0,1.274-1.036,1.274-3.109c0-2.018-0.434-3.082-1.289-3.082C34.451,21.417,33.919,22.412,33.933,24.527z"/>
		<path d="M46.423,24.471c0,2.815-1.135,4.749-3.46,4.749c-2.353,0-3.39-2.115-3.404-4.692c0-2.634,1.121-4.721,3.474-4.721
			C45.471,19.807,46.423,21.978,46.423,24.471z M41.703,24.527c-0.014,2.087,0.49,3.081,1.317,3.081
			c0.826,0,1.274-1.036,1.274-3.109c0-2.018-0.434-3.082-1.289-3.082C42.221,21.417,41.688,22.412,41.703,24.527z"/>
		<path d="M54.193,24.471c0,2.815-1.135,4.749-3.46,4.749c-2.353,0-3.39-2.115-3.404-4.692c0-2.634,1.121-4.721,3.474-4.721
			C53.241,19.807,54.193,21.978,54.193,24.471z M49.473,24.527c-0.014,2.087,0.49,3.081,1.317,3.081
			c0.826,0,1.274-1.036,1.274-3.109c0-2.018-0.434-3.082-1.289-3.082C49.991,21.417,49.459,22.412,49.473,24.527z"/>
	</g>
	<g>
		<path d="M26.333,67.474c-0.238-0.015-0.49,0-0.826,0.027c-1.891,0.154-2.731,1.121-2.97,2.186h0.042
			c0.448-0.462,1.079-0.729,1.933-0.729c1.527,0,2.815,1.079,2.815,2.97c0,1.807-1.387,3.292-3.362,3.292
			c-2.423,0-3.614-1.808-3.614-3.979c0-1.709,0.63-3.138,1.611-4.048c0.91-0.826,2.087-1.274,3.516-1.345
			c0.393-0.028,0.645-0.028,0.854-0.015V67.474z M25.17,72.04c0-0.841-0.448-1.569-1.359-1.569c-0.574,0-1.05,0.351-1.26,0.813
			c-0.056,0.112-0.084,0.28-0.084,0.532c0.042,0.967,0.504,1.835,1.471,1.835C24.694,73.65,25.17,72.964,25.17,72.04z"/>
		<path d="M27.729,76.732c0.435-1.247,0.813-2.703,1.009-3.979l2.171-0.14c-0.462,1.429-1.092,2.899-1.765,3.992L27.729,76.732z"/>
		<path d="M38.653,70.471c0,2.815-1.135,4.749-3.46,4.749c-2.353,0-3.39-2.115-3.404-4.692c0-2.634,1.121-4.721,3.474-4.721
			C37.701,65.807,38.653,67.978,38.653,70.471z M33.933,70.527c-0.014,2.087,0.49,3.081,1.317,3.081
			c0.826,0,1.274-1.036,1.274-3.109c0-2.018-0.434-3.082-1.289-3.082C34.451,67.417,33.919,68.412,33.933,70.527z"/>
		<path d="M46.423,70.471c0,2.815-1.135,4.749-3.46,4.749c-2.353,0-3.39-2.115-3.404-4.692c0-2.634,1.121-4.721,3.474-4.721
			C45.471,65.807,46.423,67.978,46.423,70.471z M41.703,70.527c-0.014,2.087,0.49,3.081,1.317,3.081
			c0.826,0,1.274-1.036,1.274-3.109c0-2.018-0.434-3.082-1.289-3.082C42.221,67.417,41.688,68.412,41.703,70.527z"/>
		<path d="M54.193,70.471c0,2.815-1.135,4.749-3.46,4.749c-2.353,0-3.39-2.115-3.404-4.692c0-2.634,1.121-4.721,3.474-4.721
			C53.241,65.807,54.193,67.978,54.193,70.471z M49.473,70.527c-0.014,2.087,0.49,3.081,1.317,3.081
			c0.826,0,1.274-1.036,1.274-3.109c0-2.018-0.434-3.082-1.289-3.082C49.991,67.417,49.459,68.412,49.473,70.527z"/>
	</g>
	<g>
		<path d="M26.599,117.045h-3.53l-0.196,1.4c0.196-0.028,0.364-0.028,0.588-0.028c0.869,0,1.751,0.196,2.396,0.658
			c0.686,0.463,1.106,1.219,1.106,2.283c0,1.695-1.457,3.194-3.908,3.194c-1.106,0-2.031-0.252-2.535-0.519l0.378-1.597
			c0.406,0.196,1.233,0.448,2.059,0.448c0.883,0,1.821-0.42,1.821-1.387c0-0.938-0.743-1.513-2.563-1.513
			c-0.504,0-0.854,0.027-1.232,0.084l0.602-4.776h5.015V117.045z"/>
		<path d="M27.729,126.066c0.435-1.247,0.813-2.703,1.009-3.979l2.171-0.14c-0.462,1.429-1.092,2.899-1.765,3.992L27.729,126.066z"
			/>
		<path d="M38.653,119.804c0,2.815-1.135,4.749-3.46,4.749c-2.353,0-3.39-2.115-3.404-4.692c0-2.634,1.121-4.721,3.474-4.721
			C37.701,115.14,38.653,117.311,38.653,119.804z M33.933,119.861c-0.014,2.087,0.49,3.081,1.317,3.081
			c0.826,0,1.274-1.036,1.274-3.109c0-2.018-0.434-3.082-1.289-3.082C34.451,116.75,33.919,117.746,33.933,119.861z"/>
		<path d="M46.423,119.804c0,2.815-1.135,4.749-3.46,4.749c-2.353,0-3.39-2.115-3.404-4.692c0-2.634,1.121-4.721,3.474-4.721
			C45.471,115.14,46.423,117.311,46.423,119.804z M41.703,119.861c-0.014,2.087,0.49,3.081,1.317,3.081
			c0.826,0,1.274-1.036,1.274-3.109c0-2.018-0.434-3.082-1.289-3.082C42.221,116.75,41.688,117.746,41.703,119.861z"/>
		<path d="M54.193,119.804c0,2.815-1.135,4.749-3.46,4.749c-2.353,0-3.39-2.115-3.404-4.692c0-2.634,1.121-4.721,3.474-4.721
			C53.241,115.14,54.193,117.311,54.193,119.804z M49.473,119.861c-0.014,2.087,0.49,3.081,1.317,3.081
			c0.826,0,1.274-1.036,1.274-3.109c0-2.018-0.434-3.082-1.289-3.082C49.991,116.75,49.459,117.746,49.473,119.861z"/>
	</g>
	<g>
		<path d="M26.599,117.045h-3.53l-0.196,1.4c0.196-0.028,0.364-0.028,0.588-0.028c0.869,0,1.751,0.196,2.396,0.658
			c0.686,0.463,1.106,1.219,1.106,2.283c0,1.695-1.457,3.194-3.908,3.194c-1.106,0-2.031-0.252-2.535-0.519l0.378-1.597
			c0.406,0.196,1.233,0.448,2.059,0.448c0.883,0,1.821-0.42,1.821-1.387c0-0.938-0.743-1.513-2.563-1.513
			c-0.504,0-0.854,0.027-1.232,0.084l0.602-4.776h5.015V117.045z"/>
		<path d="M27.729,126.066c0.435-1.247,0.813-2.703,1.009-3.979l2.171-0.14c-0.462,1.429-1.092,2.899-1.765,3.992L27.729,126.066z"
			/>
		<path d="M38.653,119.804c0,2.815-1.135,4.749-3.46,4.749c-2.353,0-3.39-2.115-3.404-4.692c0-2.634,1.121-4.721,3.474-4.721
			C37.701,115.14,38.653,117.311,38.653,119.804z M33.933,119.861c-0.014,2.087,0.49,3.081,1.317,3.081
			c0.826,0,1.274-1.036,1.274-3.109c0-2.018-0.434-3.082-1.289-3.082C34.451,116.75,33.919,117.746,33.933,119.861z"/>
		<path d="M46.423,119.804c0,2.815-1.135,4.749-3.46,4.749c-2.353,0-3.39-2.115-3.404-4.692c0-2.634,1.121-4.721,3.474-4.721
			C45.471,115.14,46.423,117.311,46.423,119.804z M41.703,119.861c-0.014,2.087,0.49,3.081,1.317,3.081
			c0.826,0,1.274-1.036,1.274-3.109c0-2.018-0.434-3.082-1.289-3.082C42.221,116.75,41.688,117.746,41.703,119.861z"/>
		<path d="M54.193,119.804c0,2.815-1.135,4.749-3.46,4.749c-2.353,0-3.39-2.115-3.404-4.692c0-2.634,1.121-4.721,3.474-4.721
			C53.241,115.14,54.193,117.311,54.193,119.804z M49.473,119.861c-0.014,2.087,0.49,3.081,1.317,3.081
			c0.826,0,1.274-1.036,1.274-3.109c0-2.018-0.434-3.082-1.289-3.082C49.991,116.75,49.459,117.746,49.473,119.861z"/>
	</g>
	<g>
		<path d="M23.237,303.852h-0.028l-1.737,0.826l-0.351-1.597l2.41-1.12h1.765v9.104h-2.059V303.852z"/>
		<path d="M27.729,312.732c0.435-1.247,0.813-2.703,1.009-3.979l2.171-0.14c-0.462,1.429-1.092,2.899-1.765,3.992L27.729,312.732z"
			/>
		<path d="M38.653,306.471c0,2.815-1.135,4.749-3.46,4.749c-2.353,0-3.39-2.115-3.404-4.692c0-2.634,1.121-4.721,3.474-4.721
			C37.701,301.807,38.653,303.978,38.653,306.471z M33.933,306.527c-0.014,2.087,0.49,3.081,1.317,3.081
			c0.826,0,1.274-1.036,1.274-3.109c0-2.018-0.434-3.082-1.289-3.082C34.451,303.417,33.919,304.412,33.933,306.527z"/>
		<path d="M46.423,306.471c0,2.815-1.135,4.749-3.46,4.749c-2.353,0-3.39-2.115-3.404-4.692c0-2.634,1.121-4.721,3.474-4.721
			C45.471,301.807,46.423,303.978,46.423,306.471z M41.703,306.527c-0.014,2.087,0.49,3.081,1.317,3.081
			c0.826,0,1.274-1.036,1.274-3.109c0-2.018-0.434-3.082-1.289-3.082C42.221,303.417,41.688,304.412,41.703,306.527z"/>
		<path d="M54.193,306.471c0,2.815-1.135,4.749-3.46,4.749c-2.353,0-3.39-2.115-3.404-4.692c0-2.634,1.121-4.721,3.474-4.721
			C53.241,301.807,54.193,303.978,54.193,306.471z M49.473,306.527c-0.014,2.087,0.49,3.081,1.317,3.081
			c0.826,0,1.274-1.036,1.274-3.109c0-2.018-0.434-3.082-1.289-3.082C49.991,303.417,49.459,304.412,49.473,306.527z"/>
	</g>
	<g>
		<path d="M24.288,168.065v-2.171h-4.034v-1.387l3.446-5.547h2.605v5.337h1.092v1.597h-1.092v2.171H24.288z M24.288,164.298v-2.018
			c0-0.546,0.028-1.106,0.07-1.695h-0.056c-0.294,0.589-0.532,1.121-0.84,1.695l-1.219,1.989v0.028H24.288z"/>
		<path d="M27.729,169.732c0.435-1.247,0.813-2.703,1.009-3.979l2.171-0.14c-0.462,1.429-1.092,2.899-1.765,3.992L27.729,169.732z"
			/>
		<path d="M38.653,163.471c0,2.815-1.135,4.749-3.46,4.749c-2.353,0-3.39-2.115-3.404-4.692c0-2.634,1.121-4.721,3.474-4.721
			C37.701,158.807,38.653,160.978,38.653,163.471z M33.933,163.527c-0.014,2.087,0.49,3.081,1.317,3.081
			c0.826,0,1.274-1.036,1.274-3.109c0-2.018-0.434-3.082-1.289-3.082C34.451,160.417,33.919,161.412,33.933,163.527z"/>
		<path d="M46.423,163.471c0,2.815-1.135,4.749-3.46,4.749c-2.353,0-3.39-2.115-3.404-4.692c0-2.634,1.121-4.721,3.474-4.721
			C45.471,158.807,46.423,160.978,46.423,163.471z M41.703,163.527c-0.014,2.087,0.49,3.081,1.317,3.081
			c0.826,0,1.274-1.036,1.274-3.109c0-2.018-0.434-3.082-1.289-3.082C42.221,160.417,41.688,161.412,41.703,163.527z"/>
		<path d="M54.193,163.471c0,2.815-1.135,4.749-3.46,4.749c-2.353,0-3.39-2.115-3.404-4.692c0-2.634,1.121-4.721,3.474-4.721
			C53.241,158.807,54.193,160.978,54.193,163.471z M49.473,163.527c-0.014,2.087,0.49,3.081,1.317,3.081
			c0.826,0,1.274-1.036,1.274-3.109c0-2.018-0.434-3.082-1.289-3.082C49.991,160.417,49.459,161.412,49.473,163.527z"/>
	</g>
	<g>
		<path d="M233.813,14.206c0,3.979-2.413,6.392-5.96,6.392c-3.601,0-5.708-2.719-5.708-6.176c0-3.637,2.323-6.355,5.906-6.355
			C231.778,8.066,233.813,10.856,233.813,14.206z M225.044,14.368c0,2.376,1.116,4.051,2.953,4.051c1.854,0,2.917-1.765,2.917-4.124
			c0-2.179-1.044-4.051-2.935-4.051C226.124,10.245,225.044,12.009,225.044,14.368z"/>
		<path d="M235.591,14.548c0-1.152-0.036-2.143-0.072-2.953h2.376l0.126,1.225h0.036c0.648-0.937,1.657-1.422,2.935-1.422
			c1.926,0,3.655,1.674,3.655,4.483c0,3.205-2.034,4.718-3.997,4.718c-1.062,0-1.891-0.432-2.287-1.008h-0.036v4.375h-2.737V14.548z
			 M238.328,16.618c0,0.216,0.018,0.414,0.054,0.576c0.18,0.738,0.81,1.296,1.603,1.296c1.188,0,1.891-0.99,1.891-2.484
			c0-1.405-0.63-2.467-1.854-2.467c-0.774,0-1.458,0.576-1.639,1.386c-0.036,0.144-0.054,0.324-0.054,0.486V16.618z"/>
		<path d="M249.182,9.146c0,0.756-0.576,1.369-1.477,1.369c-0.864,0-1.44-0.612-1.422-1.369c-0.018-0.792,0.558-1.386,1.44-1.386
			S249.164,8.354,249.182,9.146z M246.354,20.399v-8.805h2.737v8.805H246.354z"/>
		<path d="M259.587,17.573c0,1.152,0.036,2.088,0.072,2.827h-2.376l-0.126-1.242h-0.054c-0.342,0.54-1.17,1.44-2.755,1.44
			c-1.783,0-3.097-1.117-3.097-3.835v-5.167h2.754v4.735c0,1.278,0.415,2.053,1.369,2.053c0.756,0,1.188-0.522,1.369-0.954
			c0.072-0.162,0.09-0.378,0.09-0.594v-5.24h2.755V17.573z"/>
		<path d="M261.78,14.404c0-1.099-0.036-2.035-0.072-2.809h2.305l0.126,1.188h0.054c0.378-0.558,1.152-1.386,2.665-1.386
			c1.134,0,2.035,0.576,2.413,1.494h0.036c0.324-0.45,0.72-0.81,1.134-1.063c0.486-0.288,1.026-0.432,1.675-0.432
			c1.692,0,2.971,1.188,2.971,3.817v5.186h-2.665v-4.79c0-1.278-0.415-2.017-1.297-2.017c-0.63,0-1.08,0.432-1.26,0.955
			c-0.072,0.198-0.108,0.486-0.108,0.702v5.149h-2.665v-4.934c0-1.116-0.396-1.873-1.26-1.873c-0.702,0-1.116,0.54-1.278,0.99
			c-0.09,0.216-0.108,0.468-0.108,0.685v5.131h-2.665V14.404z"/>
		<path d="M283.741,8.264v12.136h-2.755V8.264H283.741z"/>
		<path d="M286.08,14.404c0-1.099-0.036-2.035-0.072-2.809h2.305l0.126,1.188h0.054c0.378-0.558,1.152-1.386,2.665-1.386
			c1.134,0,2.035,0.576,2.413,1.494h0.036c0.324-0.45,0.72-0.81,1.134-1.063c0.486-0.288,1.026-0.432,1.675-0.432
			c1.692,0,2.971,1.188,2.971,3.817v5.186h-2.665v-4.79c0-1.278-0.414-2.017-1.296-2.017c-0.63,0-1.081,0.432-1.261,0.955
			c-0.072,0.198-0.108,0.486-0.108,0.702v5.149h-2.665v-4.934c0-1.116-0.396-1.873-1.261-1.873c-0.702,0-1.116,0.54-1.278,0.99
			c-0.09,0.216-0.108,0.468-0.108,0.685v5.131h-2.665V14.404z"/>
		<path d="M301.559,14.548c0-1.152-0.036-2.143-0.072-2.953h2.376l0.126,1.225h0.036c0.648-0.937,1.657-1.422,2.935-1.422
			c1.927,0,3.655,1.674,3.655,4.483c0,3.205-2.035,4.718-3.998,4.718c-1.062,0-1.891-0.432-2.287-1.008h-0.036v4.375h-2.737V14.548z
			 M304.296,16.618c0,0.216,0.018,0.414,0.054,0.576c0.18,0.738,0.81,1.296,1.603,1.296c1.188,0,1.89-0.99,1.89-2.484
			c0-1.405-0.63-2.467-1.854-2.467c-0.774,0-1.458,0.576-1.639,1.386c-0.036,0.144-0.054,0.324-0.054,0.486V16.618z"/>
		<path d="M321.073,15.898c0,3.223-2.287,4.7-4.646,4.7c-2.574,0-4.556-1.693-4.556-4.538s1.873-4.663,4.7-4.663
			C319.272,11.397,321.073,13.251,321.073,15.898z M314.699,15.988c0,1.512,0.63,2.646,1.801,2.646c1.063,0,1.746-1.062,1.746-2.646
			c0-1.314-0.504-2.647-1.746-2.647C315.186,13.341,314.699,14.692,314.699,15.988z"/>
		<path d="M322.764,14.494c0-1.296-0.036-2.143-0.072-2.899h2.358l0.09,1.621h0.072c0.45-1.278,1.53-1.818,2.377-1.818
			c0.252,0,0.378,0,0.576,0.036v2.575c-0.198-0.036-0.433-0.072-0.738-0.072c-1.009,0-1.692,0.54-1.872,1.386
			c-0.036,0.18-0.055,0.396-0.055,0.612v4.465h-2.736V14.494z"/>
		<path d="M333.042,9.074v2.521h1.963v2.017h-1.963v3.187c0,1.063,0.252,1.548,1.08,1.548c0.343,0,0.612-0.036,0.811-0.072
			l0.018,2.07c-0.359,0.144-1.008,0.234-1.782,0.234c-0.882,0-1.62-0.306-2.053-0.756c-0.504-0.522-0.756-1.369-0.756-2.611v-3.601
			h-1.171v-2.017h1.171V9.686L333.042,9.074z"/>
		<path d="M336.568,18.005c0.504,0.306,1.549,0.666,2.359,0.666c0.828,0,1.17-0.288,1.17-0.738s-0.271-0.666-1.297-1.008
			c-1.818-0.612-2.521-1.603-2.502-2.646c0-1.639,1.404-2.881,3.583-2.881c1.026,0,1.944,0.234,2.484,0.504l-0.486,1.891
			c-0.396-0.216-1.152-0.504-1.908-0.504c-0.666,0-1.044,0.27-1.044,0.72c0,0.414,0.342,0.63,1.422,1.008
			c1.675,0.576,2.377,1.422,2.395,2.719c0,1.638-1.296,2.845-3.816,2.845c-1.152,0-2.179-0.252-2.846-0.612L336.568,18.005z"/>
		<path d="M350.86,9.146c0,0.756-0.576,1.369-1.476,1.369c-0.865,0-1.441-0.612-1.423-1.369c-0.019-0.792,0.558-1.386,1.44-1.386
			C350.284,7.76,350.843,8.354,350.86,9.146z M348.034,20.399v-8.805h2.736v8.805H348.034z"/>
		<path d="M352.967,14.404c0-1.099-0.036-2.035-0.072-2.809h2.377l0.126,1.207h0.054c0.36-0.558,1.261-1.404,2.719-1.404
			c1.801,0,3.151,1.188,3.151,3.781v5.222h-2.737V15.52c0-1.134-0.396-1.909-1.387-1.909c-0.756,0-1.206,0.522-1.386,1.026
			c-0.072,0.162-0.108,0.432-0.108,0.684v5.078h-2.736V14.404z"/>
		<path d="M366.467,9.074v2.521h1.963v2.017h-1.963v3.187c0,1.063,0.252,1.548,1.08,1.548c0.343,0,0.612-0.036,0.811-0.072
			l0.018,2.07c-0.359,0.144-1.008,0.234-1.782,0.234c-0.882,0-1.62-0.306-2.053-0.756c-0.504-0.522-0.756-1.369-0.756-2.611v-3.601
			h-1.171v-2.017h1.171V9.686L366.467,9.074z"/>
		<path d="M378.619,15.898c0,3.223-2.287,4.7-4.646,4.7c-2.574,0-4.556-1.693-4.556-4.538s1.873-4.663,4.7-4.663
			C376.818,11.397,378.619,13.251,378.619,15.898z M372.245,15.988c0,1.512,0.63,2.646,1.801,2.646c1.063,0,1.746-1.062,1.746-2.646
			c0-1.314-0.504-2.647-1.746-2.647C372.731,13.341,372.245,14.692,372.245,15.988z"/>
		<path d="M392.946,20.057c-0.504,0.252-1.638,0.522-3.114,0.522c-4.195,0-6.356-2.611-6.356-6.068c0-4.141,2.953-6.446,6.626-6.446
			c1.423,0,2.503,0.288,2.989,0.54l-0.559,2.179c-0.558-0.234-1.332-0.45-2.305-0.45c-2.179,0-3.871,1.314-3.871,4.015
			c0,2.431,1.44,3.961,3.89,3.961c0.828,0,1.746-0.18,2.286-0.396L392.946,20.057z"/>
		<path d="M394.601,7.616h2.736v5.023h0.036c0.288-0.378,0.648-0.666,1.08-0.9c0.396-0.216,0.919-0.342,1.423-0.342
			c1.746,0,3.079,1.206,3.079,3.853v5.149h-2.737v-4.843c0-1.152-0.396-1.945-1.422-1.945c-0.721,0-1.171,0.468-1.369,0.955
			c-0.071,0.18-0.09,0.414-0.09,0.612v5.222h-2.736V7.616z"/>
		<path d="M407.975,9.146c0,0.756-0.576,1.369-1.477,1.369c-0.863,0-1.439-0.612-1.422-1.369c-0.018-0.792,0.559-1.386,1.44-1.386
			S407.957,8.354,407.975,9.146z M405.148,20.399v-8.805h2.736v8.805H405.148z"/>
		<path d="M410.08,14.404c0-1.099-0.036-2.035-0.072-2.809h2.377l0.126,1.207h0.054c0.36-0.558,1.261-1.404,2.719-1.404
			c1.801,0,3.151,1.188,3.151,3.781v5.222h-2.737V15.52c0-1.134-0.396-1.909-1.387-1.909c-0.756,0-1.206,0.522-1.386,1.026
			c-0.072,0.162-0.108,0.432-0.108,0.684v5.078h-2.736V14.404z"/>
		<path d="M425.633,20.399l-0.162-0.882h-0.054c-0.576,0.702-1.477,1.081-2.521,1.081c-1.783,0-2.845-1.296-2.845-2.701
			c0-2.287,2.053-3.385,5.167-3.367v-0.126c0-0.468-0.252-1.135-1.603-1.135c-0.9,0-1.854,0.306-2.431,0.667l-0.504-1.765
			c0.612-0.342,1.818-0.774,3.421-0.774c2.935,0,3.871,1.729,3.871,3.799v3.061c0,0.846,0.036,1.656,0.126,2.143H425.633z
			 M425.309,16.24c-1.44-0.018-2.557,0.324-2.557,1.386c0,0.702,0.469,1.044,1.081,1.044c0.684,0,1.242-0.45,1.422-1.008
			c0.036-0.144,0.054-0.306,0.054-0.468V16.24z"/>
		<path d="M436.918,11.126h-0.036l-2.232,1.063l-0.45-2.053l3.097-1.44h2.27v11.704h-2.647V11.126z"/>
		<path d="M450.888,10.641c-0.306-0.018-0.63,0-1.063,0.036c-2.431,0.198-3.511,1.44-3.817,2.809h0.055
			c0.576-0.594,1.386-0.936,2.484-0.936c1.963,0,3.619,1.386,3.619,3.817c0,2.323-1.782,4.231-4.321,4.231
			c-3.115,0-4.646-2.323-4.646-5.114c0-2.197,0.811-4.033,2.07-5.204c1.171-1.062,2.684-1.638,4.52-1.729
			c0.504-0.036,0.828-0.036,1.099-0.018V10.641z M449.394,16.51c0-1.08-0.576-2.017-1.747-2.017c-0.738,0-1.351,0.45-1.62,1.044
			c-0.072,0.144-0.108,0.36-0.108,0.684c0.055,1.242,0.648,2.359,1.891,2.359C448.781,18.581,449.394,17.699,449.394,16.51z"/>
		<path d="M461.219,10.947h-4.537l-0.252,1.8c0.252-0.036,0.468-0.036,0.756-0.036c1.116,0,2.251,0.252,3.079,0.846
			c0.882,0.594,1.423,1.567,1.423,2.935c0,2.179-1.873,4.105-5.023,4.105c-1.423,0-2.611-0.324-3.26-0.667l0.486-2.053
			c0.522,0.252,1.585,0.576,2.646,0.576c1.135,0,2.341-0.54,2.341-1.782c0-1.207-0.954-1.945-3.295-1.945
			c-0.647,0-1.098,0.036-1.584,0.108l0.774-6.14h6.445V10.947z"/>
		<path d="M472.037,14.494c0,3.619-1.458,6.104-4.447,6.104c-3.024,0-4.357-2.719-4.375-6.032c0-3.385,1.44-6.068,4.465-6.068
			C470.813,8.498,472.037,11.289,472.037,14.494z M465.97,14.566c-0.019,2.683,0.63,3.961,1.692,3.961s1.639-1.333,1.639-3.997
			c0-2.593-0.559-3.961-1.656-3.961C466.636,10.568,465.951,11.847,465.97,14.566z"/>
		<path d="M484.728,14.98v1.692h-7.923V14.98H484.728z"/>
		<path d="M493.149,11.126h-0.036l-2.232,1.063l-0.45-2.053l3.097-1.44h2.27v11.704h-2.647V11.126z"/>
		<path d="M499.467,17.338c0-1.404,0.811-2.376,2.089-2.935V14.35c-1.135-0.576-1.692-1.53-1.692-2.557
			c0-1.981,1.782-3.295,4.123-3.295c2.736,0,3.871,1.584,3.871,3.007c0,1.008-0.54,1.999-1.692,2.575v0.054
			c1.134,0.433,2.143,1.405,2.143,2.917c0,2.125-1.782,3.547-4.502,3.547C500.835,20.598,499.467,18.923,499.467,17.338z
			 M505.517,17.249c0-1.026-0.756-1.639-1.837-1.927c-0.9,0.252-1.422,0.9-1.422,1.747c-0.019,0.846,0.63,1.639,1.656,1.639
			C504.887,18.707,505.517,18.077,505.517,17.249z M502.438,11.703c0,0.792,0.721,1.296,1.656,1.584
			c0.631-0.18,1.188-0.756,1.188-1.494c0-0.72-0.414-1.44-1.422-1.44C502.924,10.353,502.438,10.964,502.438,11.703z"/>
		<path d="M509.456,17.338c0-1.404,0.811-2.376,2.089-2.935V14.35c-1.135-0.576-1.692-1.53-1.692-2.557
			c0-1.981,1.782-3.295,4.123-3.295c2.736,0,3.871,1.584,3.871,3.007c0,1.008-0.54,1.999-1.692,2.575v0.054
			c1.134,0.433,2.143,1.405,2.143,2.917c0,2.125-1.783,3.547-4.502,3.547C510.824,20.598,509.456,18.923,509.456,17.338z
			 M515.506,17.249c0-1.026-0.756-1.639-1.837-1.927c-0.899,0.252-1.422,0.9-1.422,1.747c-0.019,0.846,0.63,1.639,1.656,1.639
			C514.876,18.707,515.506,18.077,515.506,17.249z M512.427,11.703c0,0.792,0.721,1.296,1.656,1.584
			c0.631-0.18,1.188-0.756,1.188-1.494c0-0.72-0.414-1.44-1.422-1.44C512.913,10.353,512.427,10.964,512.427,11.703z"/>
		<path d="M528.269,14.494c0,3.619-1.458,6.104-4.447,6.104c-3.024,0-4.357-2.719-4.375-6.032c0-3.385,1.44-6.068,4.466-6.068
			C527.045,8.498,528.269,11.289,528.269,14.494z M522.201,14.566c-0.018,2.683,0.63,3.961,1.692,3.961s1.639-1.333,1.639-3.997
			c0-2.593-0.559-3.961-1.656-3.961C522.867,10.568,522.184,11.847,522.201,14.566z"/>
	</g>
	<g>
		<path d="M3.369,189.892l1.961-0.022l-0.018-1.526l1.568-0.019l0.018,1.526l2.479-0.028c0.827-0.01,1.202-0.21,1.195-0.854
			c-0.003-0.266-0.034-0.476-0.064-0.629l1.61-0.033c0.115,0.279,0.19,0.782,0.198,1.385c0.008,0.686-0.223,1.264-0.569,1.604
			c-0.402,0.396-1.058,0.601-2.024,0.611l-2.802,0.033l0.011,0.91l-1.568,0.018l-0.011-0.91l-1.485,0.018L3.369,189.892z"/>
		<path d="M8.568,180.38c2.507-0.029,3.676,1.735,3.696,3.57c0.023,2.004-1.275,3.559-3.488,3.585
			c-2.213,0.025-3.645-1.415-3.67-3.614C5.082,181.82,6.51,180.403,8.568,180.38z M8.695,185.337
			c1.177-0.014,2.054-0.515,2.043-1.425c-0.01-0.827-0.842-1.349-2.074-1.335c-1.022,0.012-2.056,0.416-2.044,1.383
			C6.632,184.982,7.687,185.349,8.695,185.337z"/>
		<path d="M7.391,179.08c-0.854,0.01-1.583,0.046-2.185,0.081l-0.021-1.849l0.937-0.109v-0.042
			c-0.438-0.275-1.104-0.968-1.117-2.103c-0.017-1.4,0.896-2.461,2.913-2.485l4.062-0.047l0.024,2.129L8.208,174.7
			c-0.883,0.01-1.481,0.325-1.473,1.096c0.007,0.588,0.417,0.934,0.812,1.069c0.126,0.055,0.337,0.081,0.533,0.078l3.949-0.046
			l0.024,2.129L7.391,179.08z"/>
		<path d="M7.296,170.876c-0.854,0.01-1.583,0.046-2.186,0.082l-0.021-1.849L6.026,169v-0.042c-0.438-0.275-1.104-0.968-1.117-2.103
			c-0.017-1.4,0.896-2.461,2.912-2.485l4.062-0.047l0.025,2.129l-3.795,0.044c-0.883,0.01-1.482,0.325-1.473,1.096
			c0.006,0.588,0.417,0.934,0.811,1.069c0.127,0.055,0.337,0.081,0.533,0.078l3.949-0.046l0.025,2.129L7.296,170.876z"/>
		<path d="M9.101,161.013c0.881-0.081,1.292-0.954,1.28-1.948c-0.009-0.728-0.114-1.315-0.303-1.888l1.438-0.297
			c0.288,0.697,0.438,1.55,0.448,2.474c0.027,2.325-1.301,3.671-3.443,3.696c-1.737,0.02-3.669-1.036-3.696-3.417
			c-0.025-2.213,1.688-3.073,3.383-3.093c0.364-0.004,0.687,0.034,0.841,0.06L9.101,161.013z M7.614,158.522
			c-0.519,0.006-1.384,0.24-1.373,1.22c0.011,0.896,0.827,1.251,1.402,1.3L7.614,158.522z"/>
		<path d="M9.916,155.264c0.233-0.396,0.504-1.211,0.497-1.841c-0.008-0.645-0.234-0.908-0.585-0.904s-0.516,0.216-0.772,1.018
			c-0.46,1.42-1.225,1.976-2.037,1.971c-1.274,0.015-2.254-1.067-2.273-2.762c-0.009-0.798,0.165-1.515,0.37-1.938l1.476,0.362
			c-0.165,0.31-0.383,0.9-0.376,1.489c0.006,0.518,0.22,0.81,0.57,0.806c0.322-0.004,0.487-0.272,0.771-1.116
			c0.433-1.308,1.085-1.861,2.094-1.887c1.273-0.015,2.224,0.982,2.246,2.943c0.01,0.896-0.176,1.697-0.45,2.218L9.916,155.264z"/>
	</g>
	<g>
		<path d="M88.182,333.212h-3.53l-0.196,1.4c0.196-0.028,0.364-0.028,0.588-0.028c0.869,0,1.751,0.196,2.396,0.658
			c0.686,0.463,1.106,1.219,1.106,2.283c0,1.695-1.457,3.194-3.908,3.194c-1.106,0-2.031-0.252-2.535-0.519l0.378-1.597
			c0.406,0.196,1.233,0.448,2.059,0.448c0.883,0,1.821-0.42,1.821-1.387c0-0.938-0.743-1.513-2.563-1.513
			c-0.504,0-0.854,0.027-1.232,0.084l0.602-4.776h5.015V333.212z"/>
		<path d="M96.597,335.971c0,2.815-1.135,4.749-3.46,4.749c-2.353,0-3.39-2.115-3.404-4.692c0-2.634,1.121-4.721,3.474-4.721
			C95.644,331.307,96.597,333.478,96.597,335.971z M91.876,336.027c-0.014,2.087,0.49,3.081,1.317,3.081
			c0.826,0,1.274-1.036,1.274-3.109c0-2.018-0.434-3.082-1.289-3.082C92.395,332.917,91.862,333.912,91.876,336.027z"/>
	</g>
	<g>
		<path d="M157.63,324.794v1.345l-3.754,7.76h-2.255l3.754-7.326v-0.027h-4.174v-1.751H157.63z"/>
		<path d="M164.952,326.545h-3.53l-0.196,1.4c0.196-0.028,0.364-0.028,0.588-0.028c0.869,0,1.751,0.196,2.396,0.658
			c0.687,0.463,1.106,1.219,1.106,2.283c0,1.695-1.457,3.194-3.908,3.194c-1.106,0-2.031-0.252-2.535-0.519l0.378-1.597
			c0.406,0.196,1.233,0.448,2.06,0.448c0.882,0,1.821-0.42,1.821-1.387c0-0.938-0.743-1.513-2.563-1.513
			c-0.504,0-0.854,0.027-1.232,0.084l0.602-4.776h5.015V326.545z"/>
	</g>
	<g>
		<path d="M222.103,327.065v-1.289l1.177-1.064c1.989-1.778,2.956-2.801,2.983-3.866c0-0.742-0.448-1.33-1.499-1.33
			c-0.785,0-1.471,0.392-1.947,0.756l-0.603-1.526c0.687-0.519,1.751-0.938,2.984-0.938c2.059,0,3.194,1.204,3.194,2.857
			c0,1.526-1.107,2.745-2.423,3.922l-0.841,0.7v0.028h3.432v1.751H222.103z"/>
		<path d="M236.597,322.471c0,2.815-1.135,4.749-3.46,4.749c-2.353,0-3.39-2.115-3.404-4.692c0-2.634,1.121-4.721,3.474-4.721
			C235.644,317.807,236.597,319.978,236.597,322.471z M231.876,322.527c-0.014,2.087,0.49,3.081,1.317,3.081
			c0.826,0,1.274-1.036,1.274-3.109c0-2.018-0.434-3.082-1.289-3.082C232.395,319.417,231.862,320.412,231.876,322.527z"/>
		<path d="M244.367,322.471c0,2.815-1.135,4.749-3.46,4.749c-2.353,0-3.39-2.115-3.404-4.692c0-2.634,1.121-4.721,3.474-4.721
			C243.414,317.807,244.367,319.978,244.367,322.471z M239.646,322.527c-0.014,2.087,0.49,3.081,1.317,3.081
			c0.826,0,1.274-1.036,1.274-3.109c0-2.018-0.434-3.082-1.289-3.082C240.165,319.417,239.632,320.412,239.646,322.527z"/>
	</g>
	<g>
		<path d="M292.481,308.979c0.378,0.196,1.247,0.561,2.115,0.561c1.107,0,1.667-0.533,1.667-1.219c0-0.896-0.896-1.303-1.835-1.303
			h-0.869v-1.527h0.827c0.714-0.014,1.625-0.28,1.625-1.051c0-0.546-0.448-0.952-1.345-0.952c-0.743,0-1.527,0.322-1.905,0.546
			l-0.434-1.54c0.546-0.351,1.639-0.687,2.815-0.687c1.947,0,3.026,1.022,3.026,2.269c0,0.967-0.546,1.724-1.667,2.115v0.028
			c1.092,0.196,1.975,1.022,1.975,2.213c0,1.611-1.415,2.788-3.726,2.788c-1.177,0-2.171-0.309-2.704-0.645L292.481,308.979z"/>
		<path d="M303.641,311.065v-2.171h-4.034v-1.387l3.445-5.547h2.605v5.337h1.093v1.597h-1.093v2.171H303.641z M303.641,307.298
			v-2.018c0-0.546,0.028-1.106,0.07-1.695h-0.057c-0.294,0.589-0.532,1.121-0.84,1.695l-1.219,1.989v0.028H303.641z"/>
		<path d="M314.171,301.961v1.345l-3.755,7.76h-2.255l3.754-7.326v-0.027h-4.174v-1.751H314.171z"/>
	</g>
	<g>
		<path d="M363.153,268.519h-0.028l-1.736,0.826l-0.351-1.597l2.409-1.12h1.766v9.104h-2.06V268.519z"/>
		<path d="M367.646,277.399c0.434-1.247,0.813-2.703,1.008-3.979l2.172-0.14c-0.463,1.429-1.093,2.899-1.766,3.992L367.646,277.399z
			"/>
		<path d="M372.225,273.646c0.378,0.196,1.246,0.561,2.115,0.561c1.106,0,1.667-0.533,1.667-1.219c0-0.896-0.896-1.303-1.835-1.303
			h-0.869v-1.527h0.826c0.715-0.014,1.625-0.28,1.625-1.051c0-0.546-0.448-0.952-1.345-0.952c-0.742,0-1.526,0.322-1.904,0.546
			l-0.435-1.54c0.546-0.351,1.639-0.687,2.815-0.687c1.947,0,3.025,1.022,3.025,2.269c0,0.967-0.546,1.724-1.667,2.115v0.028
			c1.093,0.196,1.976,1.022,1.976,2.213c0,1.611-1.415,2.788-3.727,2.788c-1.176,0-2.171-0.309-2.703-0.645L372.225,273.646z"/>
		<path d="M380.288,274.191c0.266,0.028,0.504,0.028,0.925,0c0.644-0.042,1.303-0.224,1.793-0.561
			c0.588-0.406,0.98-0.994,1.148-1.681l-0.042-0.014c-0.406,0.42-0.995,0.658-1.821,0.658c-1.541,0-2.844-1.078-2.844-2.844
			c0-1.778,1.429-3.277,3.433-3.277c2.339,0,3.445,1.793,3.445,3.922c0,1.891-0.603,3.277-1.597,4.188
			c-0.868,0.784-2.06,1.219-3.474,1.274c-0.364,0.028-0.729,0.014-0.967,0V274.191z M381.577,269.625
			c0,0.784,0.42,1.457,1.288,1.457c0.574,0,0.98-0.28,1.177-0.603c0.07-0.126,0.112-0.266,0.112-0.532
			c0-0.967-0.364-1.919-1.331-1.919C382.095,268.028,381.563,268.673,381.577,269.625z"/>
		<path d="M394.108,271.138c0,2.815-1.134,4.749-3.459,4.749c-2.354,0-3.391-2.115-3.404-4.692c0-2.634,1.12-4.721,3.474-4.721
			C393.156,266.474,394.108,268.645,394.108,271.138z M389.389,271.194c-0.015,2.087,0.49,3.081,1.316,3.081
			s1.274-1.036,1.274-3.109c0-2.018-0.434-3.082-1.288-3.082C389.906,268.084,389.374,269.079,389.389,271.194z"/>
	</g>
	<g>
		<path d="M433.103,231.398v-1.289l1.177-1.064c1.989-1.778,2.956-2.801,2.984-3.866c0-0.742-0.448-1.33-1.499-1.33
			c-0.785,0-1.471,0.392-1.947,0.756l-0.603-1.526c0.687-0.519,1.751-0.938,2.983-0.938c2.06,0,3.194,1.204,3.194,2.857
			c0,1.526-1.106,2.745-2.424,3.922l-0.84,0.7v0.028h3.432v1.751H433.103z"/>
		<path d="M440.313,233.065c0.434-1.247,0.813-2.703,1.008-3.979l2.172-0.14c-0.463,1.429-1.093,2.899-1.766,3.992L440.313,233.065z
			"/>
		<path d="M450.593,224.045h-3.53l-0.196,1.4c0.196-0.028,0.364-0.028,0.589-0.028c0.868,0,1.751,0.196,2.395,0.658
			c0.687,0.463,1.107,1.219,1.107,2.283c0,1.695-1.457,3.194-3.908,3.194c-1.106,0-2.031-0.252-2.536-0.519l0.379-1.597
			c0.406,0.196,1.232,0.448,2.059,0.448c0.883,0,1.821-0.42,1.821-1.387c0-0.938-0.742-1.513-2.563-1.513
			c-0.504,0-0.854,0.027-1.232,0.084l0.603-4.776h5.015V224.045z"/>
		<path d="M458.362,224.045h-3.53l-0.196,1.4c0.196-0.028,0.364-0.028,0.589-0.028c0.868,0,1.751,0.196,2.395,0.658
			c0.687,0.463,1.107,1.219,1.107,2.283c0,1.695-1.457,3.194-3.908,3.194c-1.106,0-2.031-0.252-2.536-0.519l0.379-1.597
			c0.406,0.196,1.232,0.448,2.059,0.448c0.883,0,1.821-0.42,1.821-1.387c0-0.938-0.742-1.513-2.563-1.513
			c-0.504,0-0.854,0.027-1.232,0.084l0.603-4.776h5.015V224.045z"/>
		<path d="M460.431,229.312c0.378,0.196,1.246,0.561,2.115,0.561c1.106,0,1.667-0.533,1.667-1.219c0-0.896-0.896-1.303-1.835-1.303
			h-0.869v-1.527h0.826c0.715-0.014,1.625-0.28,1.625-1.051c0-0.546-0.448-0.952-1.345-0.952c-0.742,0-1.526,0.322-1.904,0.546
			l-0.435-1.54c0.546-0.351,1.639-0.687,2.815-0.687c1.947,0,3.025,1.022,3.025,2.269c0,0.967-0.546,1.724-1.667,2.115v0.028
			c1.093,0.196,1.976,1.022,1.976,2.213c0,1.611-1.415,2.788-3.727,2.788c-1.176,0-2.171-0.309-2.703-0.645L460.431,229.312z"/>
	</g>
	<g>
		<path d="M507.871,151.733v-2.171h-4.034v-1.387l3.445-5.547h2.605v5.337h1.093v1.597h-1.093v2.171H507.871z M507.871,147.965
			v-2.017c0-0.546,0.028-1.106,0.07-1.695h-0.057c-0.294,0.588-0.532,1.121-0.84,1.695l-1.219,1.989v0.028H507.871z"/>
		<path d="M511.313,153.4c0.434-1.247,0.813-2.704,1.008-3.978l2.172-0.14c-0.463,1.429-1.093,2.899-1.766,3.992L511.313,153.4z"/>
		<path d="M515.513,151.733v-1.289l1.177-1.064c1.989-1.779,2.956-2.802,2.984-3.866c0-0.743-0.448-1.331-1.499-1.331
			c-0.785,0-1.471,0.393-1.947,0.757l-0.603-1.527c0.687-0.519,1.751-0.938,2.983-0.938c2.06,0,3.194,1.205,3.194,2.857
			c0,1.527-1.106,2.746-2.424,3.922l-0.84,0.701v0.028h3.432v1.751H515.513z"/>
		<path d="M523.661,149.646c0.378,0.196,1.246,0.56,2.115,0.56c1.106,0,1.667-0.532,1.667-1.219c0-0.896-0.896-1.303-1.835-1.303
			h-0.869v-1.527h0.826c0.715-0.014,1.625-0.28,1.625-1.05c0-0.546-0.448-0.953-1.345-0.953c-0.742,0-1.526,0.322-1.904,0.546
			l-0.435-1.541c0.546-0.35,1.639-0.686,2.815-0.686c1.947,0,3.025,1.022,3.025,2.269c0,0.966-0.546,1.723-1.667,2.115v0.028
			c1.093,0.196,1.976,1.022,1.976,2.213c0,1.611-1.415,2.788-3.727,2.788c-1.176,0-2.171-0.309-2.703-0.645L523.661,149.646z"/>
		<path d="M531.052,151.733v-1.289l1.177-1.064c1.989-1.779,2.956-2.802,2.984-3.866c0-0.743-0.448-1.331-1.499-1.331
			c-0.785,0-1.471,0.393-1.947,0.757l-0.603-1.527c0.687-0.519,1.751-0.938,2.983-0.938c2.06,0,3.194,1.205,3.194,2.857
			c0,1.527-1.106,2.746-2.424,3.922l-0.84,0.701v0.028h3.432v1.751H531.052z"/>
	</g>
	<g>
		<path d="M576.901,107.734v-2.171h-4.034v-1.387l3.445-5.547h2.605v5.337h1.093v1.597h-1.093v2.171H576.901z M576.901,103.966
			v-2.017c0-0.546,0.028-1.106,0.07-1.695h-0.057c-0.294,0.588-0.532,1.121-0.84,1.695l-1.219,1.989v0.028H576.901z"/>
		<path d="M580.343,109.401c0.434-1.247,0.813-2.704,1.008-3.978l2.172-0.14c-0.463,1.429-1.093,2.899-1.766,3.992L580.343,109.401z
			"/>
		<path d="M584.403,105.353c0-1.092,0.63-1.849,1.625-2.283v-0.042c-0.883-0.448-1.316-1.19-1.316-1.989
			c0-1.541,1.387-2.563,3.207-2.563c2.13,0,3.012,1.232,3.012,2.339c0,0.785-0.42,1.555-1.316,2.003v0.042
			c0.883,0.336,1.667,1.092,1.667,2.269c0,1.653-1.387,2.76-3.502,2.76C585.468,107.889,584.403,106.586,584.403,105.353z
			 M589.109,105.283c0-0.799-0.588-1.275-1.429-1.499c-0.7,0.196-1.106,0.7-1.106,1.359c-0.014,0.658,0.49,1.274,1.289,1.274
			C588.619,106.417,589.109,105.927,589.109,105.283z M586.715,100.969c0,0.616,0.56,1.008,1.288,1.232
			c0.49-0.14,0.925-0.588,0.925-1.163c0-0.56-0.322-1.121-1.106-1.121C587.093,99.918,586.715,100.395,586.715,100.969z"/>
		<path d="M592.985,106.193c0.266,0.028,0.504,0.028,0.925,0c0.644-0.042,1.303-0.224,1.793-0.56
			c0.588-0.406,0.98-0.995,1.148-1.681l-0.042-0.014c-0.406,0.42-0.995,0.658-1.821,0.658c-1.541,0-2.844-1.079-2.844-2.844
			c0-1.779,1.429-3.277,3.433-3.277c2.339,0,3.445,1.793,3.445,3.922c0,1.891-0.603,3.278-1.597,4.188
			c-0.868,0.784-2.06,1.218-3.474,1.274c-0.364,0.028-0.729,0.014-0.967,0V106.193z M594.274,101.627
			c0,0.785,0.42,1.457,1.288,1.457c0.574,0,0.98-0.28,1.177-0.603c0.07-0.126,0.112-0.266,0.112-0.532
			c0-0.966-0.364-1.919-1.331-1.919C594.792,100.03,594.26,100.675,594.274,101.627z"/>
		<path d="M606.61,98.629v1.345l-3.755,7.76h-2.255l3.754-7.326v-0.028h-4.174v-1.751H606.61z"/>
	</g>
	<g>
		<path d="M625.999,37.475c-0.238-0.014-0.49,0-0.826,0.028c-1.892,0.154-2.731,1.121-2.97,2.185h0.042
			c0.448-0.462,1.078-0.729,1.933-0.729c1.527,0,2.815,1.079,2.815,2.97c0,1.807-1.387,3.292-3.361,3.292
			c-2.423,0-3.614-1.807-3.614-3.979c0-1.709,0.631-3.138,1.611-4.048c0.91-0.827,2.087-1.275,3.516-1.345
			c0.393-0.028,0.645-0.028,0.854-0.014V37.475z M624.837,42.041c0-0.84-0.448-1.568-1.359-1.568c-0.574,0-1.051,0.35-1.261,0.812
			c-0.056,0.112-0.084,0.28-0.084,0.533c0.042,0.966,0.505,1.835,1.471,1.835C624.36,43.652,624.837,42.966,624.837,42.041z"/>
		<path d="M627.396,46.734c0.434-1.247,0.813-2.704,1.008-3.978l2.172-0.14c-0.463,1.429-1.093,2.899-1.766,3.992L627.396,46.734z"
			/>
		<path d="M637.676,37.713h-3.53l-0.196,1.401c0.196-0.028,0.364-0.028,0.589-0.028c0.868,0,1.751,0.196,2.395,0.659
			c0.687,0.462,1.107,1.219,1.107,2.283c0,1.695-1.457,3.194-3.908,3.194c-1.107,0-2.031-0.252-2.536-0.519l0.379-1.597
			c0.406,0.196,1.232,0.448,2.059,0.448c0.883,0,1.821-0.42,1.821-1.387c0-0.938-0.742-1.513-2.563-1.513
			c-0.504,0-0.854,0.028-1.232,0.084l0.603-4.777h5.015V37.713z"/>
		<path d="M646.089,40.473c0,2.815-1.134,4.749-3.459,4.749c-2.354,0-3.391-2.115-3.404-4.693c0-2.633,1.121-4.72,3.474-4.72
			C645.137,35.808,646.089,37.979,646.089,40.473z M641.369,40.528c-0.015,2.087,0.49,3.082,1.316,3.082s1.274-1.037,1.274-3.11
			c0-2.017-0.434-3.082-1.288-3.082C641.887,37.419,641.354,38.413,641.369,40.528z"/>
		<path d="M653.858,40.473c0,2.815-1.134,4.749-3.459,4.749c-2.354,0-3.391-2.115-3.404-4.693c0-2.633,1.121-4.72,3.474-4.72
			C652.906,35.808,653.858,37.979,653.858,40.473z M649.139,40.528c-0.015,2.087,0.49,3.082,1.316,3.082s1.274-1.037,1.274-3.11
			c0-2.017-0.434-3.082-1.288-3.082C649.656,37.419,649.124,38.413,649.139,40.528z"/>
	</g>
	<g>
		<path d="M23.042,370.064v-3.866l-2.984-5.575h2.438l0.966,2.27c0.294,0.687,0.49,1.19,0.729,1.807h0.028
			c0.21-0.588,0.435-1.134,0.714-1.807l0.953-2.27h2.396l-3.11,5.505v3.937H23.042z"/>
		<path d="M29.341,367.319c0.07,0.882,0.938,1.303,1.933,1.303c0.729,0,1.317-0.099,1.891-0.28l0.28,1.442
			c-0.701,0.28-1.555,0.42-2.479,0.42c-2.325,0-3.656-1.345-3.656-3.487c0-1.737,1.079-3.656,3.459-3.656
			c2.213,0,3.054,1.723,3.054,3.418c0,0.364-0.042,0.687-0.07,0.841H29.341z M31.848,365.862c0-0.519-0.224-1.387-1.205-1.387
			c-0.896,0-1.261,0.813-1.316,1.387H31.848z"/>
		<path d="M38.988,370.064l-0.126-0.687H38.82c-0.448,0.547-1.149,0.841-1.961,0.841c-1.387,0-2.213-1.009-2.213-2.102
			c0-1.778,1.597-2.633,4.02-2.619V365.4c0-0.364-0.196-0.883-1.247-0.883c-0.7,0-1.443,0.238-1.891,0.519l-0.392-1.373
			c0.476-0.267,1.415-0.603,2.662-0.603c2.283,0,3.011,1.345,3.011,2.956v2.381c0,0.658,0.028,1.289,0.098,1.667H38.988z
			 M38.736,366.829c-1.121-0.015-1.989,0.252-1.989,1.078c0,0.546,0.364,0.813,0.84,0.813c0.532,0,0.967-0.351,1.107-0.784
			c0.028-0.112,0.042-0.238,0.042-0.364V366.829z"/>
		<path d="M42.486,365.47c0-1.008-0.028-1.667-0.056-2.255h1.835l0.07,1.261h0.056c0.351-0.995,1.191-1.415,1.849-1.415
			c0.196,0,0.294,0,0.448,0.028v2.003c-0.154-0.028-0.336-0.056-0.574-0.056c-0.784,0-1.317,0.42-1.457,1.078
			c-0.028,0.141-0.042,0.309-0.042,0.477v3.474h-2.129V365.47z"/>
	</g>
	<g>
		<path d="M237.237,378.852h-0.028l-1.737,0.826l-0.351-1.597l2.41-1.12h1.765v9.104h-2.059V378.852z"/>
		<path d="M250.524,385.897c-0.378,0.168-1.092,0.308-1.905,0.308c-2.213,0-3.628-1.345-3.628-3.501
			c0-2.004,1.373-3.643,3.922-3.643c0.561,0,1.177,0.099,1.625,0.267l-0.336,1.583c-0.252-0.112-0.63-0.211-1.19-0.211
			c-1.121,0-1.849,0.799-1.835,1.919c0,1.261,0.84,1.92,1.877,1.92c0.504,0,0.896-0.085,1.219-0.211L250.524,385.897z"/>
		<path d="M251.698,376.12h2.129v3.908h0.028c0.224-0.294,0.504-0.519,0.84-0.7c0.309-0.168,0.715-0.267,1.106-0.267
			c1.359,0,2.396,0.938,2.396,2.998v4.006h-2.129v-3.768c0-0.896-0.309-1.514-1.106-1.514c-0.561,0-0.911,0.364-1.065,0.743
			c-0.056,0.14-0.07,0.322-0.07,0.476v4.063h-2.129V376.12z"/>
		<path d="M261.54,383.32c0.07,0.882,0.938,1.303,1.934,1.303c0.728,0,1.316-0.099,1.891-0.28l0.28,1.442
			c-0.7,0.28-1.555,0.42-2.479,0.42c-2.325,0-3.656-1.345-3.656-3.487c0-1.737,1.079-3.656,3.46-3.656
			c2.214,0,3.054,1.723,3.054,3.418c0,0.364-0.042,0.687-0.07,0.841H261.54z M264.048,381.863c0-0.519-0.225-1.387-1.205-1.387
			c-0.896,0-1.261,0.813-1.316,1.387H264.048z"/>
		<path d="M267.28,384.202c0.392,0.238,1.204,0.519,1.835,0.519c0.644,0,0.91-0.224,0.91-0.574s-0.21-0.519-1.009-0.784
			c-1.414-0.477-1.961-1.247-1.947-2.06c0-1.274,1.093-2.241,2.788-2.241c0.798,0,1.513,0.183,1.933,0.393l-0.378,1.471
			c-0.309-0.168-0.896-0.393-1.484-0.393c-0.519,0-0.813,0.21-0.813,0.561c0,0.322,0.266,0.49,1.106,0.784
			c1.303,0.448,1.849,1.106,1.863,2.115c0,1.274-1.009,2.213-2.97,2.213c-0.896,0-1.695-0.195-2.214-0.476L267.28,384.202z"/>
		<path d="M275.751,377.255v1.961h1.527v1.568h-1.527v2.479c0,0.827,0.196,1.205,0.841,1.205c0.267,0,0.477-0.028,0.631-0.057
			l0.014,1.611c-0.28,0.112-0.784,0.182-1.387,0.182c-0.687,0-1.261-0.237-1.597-0.588c-0.393-0.406-0.589-1.064-0.589-2.031v-2.802
			h-0.91v-1.568h0.91v-1.485L275.751,377.255z"/>
		<path d="M281.041,381.513v-1.303h7.228v1.303H281.041z M281.041,384.412v-1.303h7.228v1.303H281.041z"/>
		<path d="M294.958,378.852h-0.028l-1.736,0.826l-0.351-1.597l2.409-1.12h1.766v9.104h-2.06V378.852z"/>
		<path d="M303.779,386.065v-2.171h-4.034v-1.387l3.445-5.547h2.605v5.337h1.093v1.597h-1.093v2.171H303.779z M303.779,382.298
			v-2.018c0-0.546,0.028-1.106,0.07-1.695h-0.057c-0.294,0.589-0.532,1.121-0.84,1.695l-1.219,1.989v0.028H303.779z"/>
		<path d="M314.504,381.471c0,2.815-1.134,4.749-3.459,4.749c-2.354,0-3.391-2.115-3.404-4.692c0-2.634,1.121-4.721,3.474-4.721
			C313.552,376.807,314.504,378.978,314.504,381.471z M309.784,381.527c-0.015,2.087,0.49,3.081,1.316,3.081
			s1.274-1.036,1.274-3.109c0-2.018-0.434-3.082-1.288-3.082C310.302,378.417,309.77,379.412,309.784,381.527z"/>
		<path d="M318.645,376.12h2.129v9.945h-2.129V376.12z"/>
		<path d="M322.439,386.065c0.027-0.448,0.056-1.274,0.056-2.045v-7.9h2.129v3.908h0.028c0.406-0.589,1.12-0.967,2.073-0.967
			c1.639,0,2.844,1.358,2.829,3.46c0,2.466-1.568,3.698-3.138,3.698c-0.798,0-1.568-0.294-2.059-1.106h-0.028l-0.084,0.952H322.439z
			 M324.624,383.151c0,0.141,0.015,0.267,0.042,0.379c0.141,0.574,0.631,1.009,1.247,1.009c0.91,0,1.471-0.701,1.471-1.934
			c0-1.064-0.477-1.905-1.471-1.905c-0.574,0-1.106,0.435-1.247,1.051c-0.027,0.126-0.042,0.252-0.042,0.393V383.151z"/>
		<path d="M330.854,384.202c0.392,0.238,1.204,0.519,1.835,0.519c0.644,0,0.91-0.224,0.91-0.574s-0.21-0.519-1.009-0.784
			c-1.414-0.477-1.961-1.247-1.947-2.06c0-1.274,1.093-2.241,2.788-2.241c0.798,0,1.513,0.183,1.933,0.393l-0.378,1.471
			c-0.309-0.168-0.896-0.393-1.484-0.393c-0.519,0-0.813,0.21-0.813,0.561c0,0.322,0.266,0.49,1.106,0.784
			c1.303,0.448,1.849,1.106,1.863,2.115c0,1.274-1.009,2.213-2.97,2.213c-0.896,0-1.695-0.195-2.214-0.476L330.854,384.202z"/>
		<path d="M339.477,381.513v-1.303h7.228v1.303H339.477z M339.477,384.412v-1.303h7.228v1.303H339.477z"/>
		<path d="M356.489,378.474c-0.238-0.015-0.49,0-0.826,0.027c-1.892,0.154-2.731,1.121-2.97,2.186h0.042
			c0.448-0.462,1.078-0.729,1.933-0.729c1.527,0,2.816,1.079,2.816,2.97c0,1.807-1.388,3.292-3.362,3.292
			c-2.423,0-3.614-1.808-3.614-3.979c0-1.709,0.631-3.138,1.611-4.048c0.91-0.826,2.087-1.274,3.516-1.345
			c0.393-0.028,0.645-0.028,0.854-0.015V378.474z M355.327,383.04c0-0.841-0.448-1.569-1.359-1.569
			c-0.574,0-1.051,0.351-1.261,0.813c-0.056,0.112-0.084,0.28-0.084,0.532c0.042,0.967,0.505,1.835,1.471,1.835
			C354.851,384.65,355.327,383.964,355.327,383.04z"/>
		<path d="M358.824,383.979c0.378,0.196,1.246,0.561,2.115,0.561c1.106,0,1.667-0.533,1.667-1.219c0-0.896-0.896-1.303-1.835-1.303
			h-0.869v-1.527h0.826c0.715-0.014,1.625-0.28,1.625-1.051c0-0.546-0.448-0.952-1.345-0.952c-0.742,0-1.526,0.322-1.904,0.546
			l-0.435-1.54c0.546-0.351,1.639-0.687,2.815-0.687c1.947,0,3.025,1.022,3.025,2.269c0,0.967-0.546,1.724-1.667,2.115v0.028
			c1.093,0.196,1.976,1.022,1.976,2.213c0,1.611-1.415,2.788-3.727,2.788c-1.176,0-2.171-0.309-2.703-0.645L358.824,383.979z"/>
		<path d="M366.328,384.931c0-0.756,0.519-1.303,1.261-1.303s1.247,0.532,1.247,1.303c0,0.742-0.505,1.289-1.261,1.289
			C366.847,386.22,366.328,385.673,366.328,384.931z"/>
		<path d="M375.936,378.712h-3.53l-0.196,1.4c0.196-0.028,0.364-0.028,0.589-0.028c0.868,0,1.751,0.196,2.395,0.658
			c0.687,0.463,1.107,1.219,1.107,2.283c0,1.695-1.457,3.194-3.908,3.194c-1.106,0-2.031-0.252-2.536-0.519l0.379-1.597
			c0.406,0.196,1.232,0.448,2.059,0.448c0.883,0,1.821-0.42,1.821-1.387c0-0.938-0.742-1.513-2.563-1.513
			c-0.504,0-0.854,0.027-1.232,0.084l0.603-4.776h5.015V378.712z"/>
		<path d="M380.79,376.624h2.115v4.175h0.042c0.21-0.364,0.434-0.7,0.644-1.037l2.144-3.138h2.619l-3.123,4.021l3.291,5.421h-2.493
			l-2.311-4.076l-0.813,0.994v3.082h-2.115V376.624z"/>
		<path d="M395.676,379.216c-0.028,0.435-0.057,1.009-0.057,2.031v3.824c0,1.316-0.266,2.395-1.036,3.081
			c-0.757,0.645-1.779,0.841-2.788,0.841c-0.896,0-1.849-0.183-2.465-0.532l0.42-1.611c0.435,0.252,1.19,0.519,1.989,0.519
			c1.009,0,1.779-0.546,1.779-1.807v-0.448h-0.028c-0.406,0.574-1.064,0.896-1.85,0.896c-1.694,0-2.899-1.373-2.899-3.349
			c0-2.199,1.429-3.6,3.11-3.6c0.938,0,1.526,0.406,1.877,0.967h0.027l0.07-0.813H395.676z M393.49,382.003
			c0-0.14-0.014-0.28-0.042-0.392c-0.154-0.561-0.561-0.938-1.148-0.938c-0.771,0-1.401,0.7-1.401,1.946
			c0,1.023,0.505,1.821,1.401,1.821c0.546,0,0.98-0.364,1.12-0.868c0.057-0.154,0.07-0.378,0.07-0.561V382.003z"/>
		<path d="M396.498,387.732c0.434-1.247,0.813-2.703,1.022-3.979l2.143-0.14c-0.462,1.429-1.092,2.899-1.765,3.992L396.498,387.732z
			 M397.254,380.42c0-0.756,0.505-1.288,1.247-1.288s1.232,0.519,1.246,1.288c0,0.729-0.49,1.275-1.246,1.275
			C397.759,381.695,397.24,381.148,397.254,380.42z"/>
		<path d="M406.243,378.852h-0.028l-1.736,0.826l-0.351-1.597l2.409-1.12h1.766v9.104h-2.06V378.852z"/>
		<path d="M414.39,381.513c0-0.896-0.028-1.667-0.056-2.297h1.849l0.098,0.952h0.028c0.504-0.729,1.289-1.106,2.283-1.106
			c1.499,0,2.844,1.303,2.844,3.488c0,2.493-1.583,3.67-3.109,3.67c-0.827,0-1.472-0.336-1.779-0.784h-0.028v3.403h-2.129V381.513z
			 M416.519,383.124c0,0.168,0.015,0.322,0.042,0.448c0.141,0.574,0.631,1.009,1.247,1.009c0.925,0,1.471-0.771,1.471-1.934
			c0-1.093-0.49-1.919-1.442-1.919c-0.603,0-1.135,0.448-1.275,1.079c-0.027,0.111-0.042,0.252-0.042,0.378V383.124z"/>
		<path d="M424.961,377.311c0,0.589-0.448,1.064-1.148,1.064c-0.673,0-1.121-0.476-1.106-1.064c-0.015-0.616,0.434-1.078,1.12-1.078
			S424.947,376.694,424.961,377.311z M422.762,386.065v-6.85h2.129v6.85H422.762z"/>
		<path d="M431.738,385.897c-0.378,0.168-1.093,0.308-1.905,0.308c-2.213,0-3.628-1.345-3.628-3.501
			c0-2.004,1.373-3.643,3.923-3.643c0.56,0,1.176,0.099,1.624,0.267l-0.336,1.583c-0.252-0.112-0.63-0.211-1.19-0.211
			c-1.12,0-1.849,0.799-1.835,1.919c0,1.261,0.841,1.92,1.877,1.92c0.504,0,0.896-0.085,1.219-0.211L431.738,385.897z"/>
		<path d="M439.368,383.866c0,0.896,0.028,1.625,0.057,2.199h-1.85l-0.098-0.967h-0.042c-0.267,0.421-0.91,1.121-2.144,1.121
			c-1.387,0-2.409-0.869-2.409-2.983v-4.021h2.144v3.684c0,0.995,0.322,1.598,1.064,1.598c0.588,0,0.925-0.406,1.064-0.743
			c0.056-0.126,0.07-0.294,0.07-0.462v-4.076h2.143V383.866z"/>
		<path d="M441.073,376.12h2.129v9.945h-2.129V376.12z"/>
		<path d="M447.457,381.513v-1.303h7.228v1.303H447.457z M447.457,384.412v-1.303h7.228v1.303H447.457z"/>
		<path d="M464.47,378.474c-0.238-0.015-0.49,0-0.826,0.027c-1.892,0.154-2.731,1.121-2.97,2.186h0.042
			c0.448-0.462,1.078-0.729,1.933-0.729c1.527,0,2.816,1.079,2.816,2.97c0,1.807-1.388,3.292-3.362,3.292
			c-2.423,0-3.614-1.808-3.614-3.979c0-1.709,0.631-3.138,1.611-4.048c0.91-0.826,2.087-1.274,3.516-1.345
			c0.393-0.028,0.645-0.028,0.854-0.015V378.474z M463.308,383.04c0-0.841-0.448-1.569-1.359-1.569
			c-0.574,0-1.051,0.351-1.261,0.813c-0.056,0.112-0.084,0.28-0.084,0.532c0.042,0.967,0.505,1.835,1.471,1.835
			C462.831,384.65,463.308,383.964,463.308,383.04z"/>
		<path d="M473.149,381.471c0,2.815-1.134,4.749-3.459,4.749c-2.354,0-3.391-2.115-3.404-4.692c0-2.634,1.12-4.721,3.474-4.721
			C472.197,376.807,473.149,378.978,473.149,381.471z M468.43,381.527c-0.015,2.087,0.49,3.081,1.316,3.081s1.274-1.036,1.274-3.109
			c0-2.018-0.434-3.082-1.288-3.082C468.947,378.417,468.415,379.412,468.43,381.527z"/>
		<path d="M474.309,384.931c0-0.756,0.519-1.303,1.261-1.303s1.247,0.532,1.247,1.303c0,0.742-0.505,1.289-1.261,1.289
			C474.827,386.22,474.309,385.673,474.309,384.931z"/>
		<path d="M481.604,386.065v-2.171h-4.034v-1.387l3.445-5.547h2.605v5.337h1.093v1.597h-1.093v2.171H481.604z M481.604,382.298
			v-2.018c0-0.546,0.028-1.106,0.07-1.695h-0.057c-0.294,0.589-0.532,1.121-0.84,1.695l-1.219,1.989v0.028H481.604z"/>
		<path d="M491.686,378.712h-3.53l-0.196,1.4c0.196-0.028,0.364-0.028,0.589-0.028c0.868,0,1.751,0.196,2.395,0.658
			c0.687,0.463,1.107,1.219,1.107,2.283c0,1.695-1.457,3.194-3.908,3.194c-1.106,0-2.031-0.252-2.536-0.519l0.379-1.597
			c0.406,0.196,1.232,0.448,2.059,0.448c0.883,0,1.821-0.42,1.821-1.387c0-0.938-0.742-1.513-2.563-1.513
			c-0.504,0-0.854,0.027-1.232,0.084l0.603-4.776h5.015V378.712z"/>
		<path d="M493.755,383.979c0.378,0.196,1.246,0.561,2.115,0.561c1.106,0,1.667-0.533,1.667-1.219c0-0.896-0.896-1.303-1.836-1.303
			h-0.868v-1.527h0.826c0.715-0.014,1.625-0.28,1.625-1.051c0-0.546-0.448-0.952-1.345-0.952c-0.742,0-1.526,0.322-1.904,0.546
			l-0.435-1.54c0.546-0.351,1.639-0.687,2.815-0.687c1.947,0,3.025,1.022,3.025,2.269c0,0.967-0.546,1.724-1.667,2.115v0.028
			c1.093,0.196,1.976,1.022,1.976,2.213c0,1.611-1.415,2.788-3.727,2.788c-1.176,0-2.171-0.309-2.703-0.645L493.755,383.979z"/>
	</g>
	<g>
		<path d="M486.715,399.07c0.379,0.25,0.929,0.43,1.519,0.43c0.649,0,1.249-0.35,1.249-1c0-0.439-0.289-0.739-0.949-1.089
			c-0.779-0.42-1.369-0.96-1.369-1.759c0-1.29,1.119-2.1,2.479-2.1c0.75,0,1.239,0.19,1.499,0.34l-0.38,0.97
			c-0.22-0.12-0.669-0.31-1.219-0.3c-0.739,0-1.159,0.43-1.159,0.88c0,0.46,0.38,0.729,1.009,1.089c0.82,0.43,1.31,0.97,1.31,1.789
			c0,1.35-1.089,2.179-2.599,2.179c-0.819,0-1.489-0.229-1.789-0.47L486.715,399.07z"/>
		<path d="M496.371,397.441c0,1.648-1.159,3.068-2.818,3.068c-1.229,0-1.988-0.85-1.988-2.01c0-1.648,1.148-3.078,2.808-3.078
			C495.682,395.422,496.371,396.361,496.371,397.441z M492.764,398.471c0,0.669,0.359,1.139,0.949,1.139
			c0.869,0,1.449-1.199,1.449-2.168c0-0.5-0.22-1.12-0.93-1.12C493.303,396.321,492.764,397.561,492.764,398.471z"/>
		<path d="M501.912,395.532l-0.64,3.358c-0.11,0.579-0.18,1.089-0.24,1.509h-1.029l0.1-0.85h-0.02c-0.47,0.63-1.079,0.96-1.689,0.96
			c-0.709,0-1.269-0.38-1.269-1.38c0-0.26,0.029-0.539,0.1-0.869l0.52-2.729h1.159l-0.499,2.658c-0.051,0.24-0.08,0.479-0.08,0.67
			c0,0.399,0.159,0.689,0.619,0.689c0.54,0,1.17-0.64,1.359-1.649l0.45-2.368H501.912z"/>
		<path d="M502.324,400.399l0.569-2.998c0.13-0.689,0.19-1.43,0.25-1.869h1.01c-0.03,0.33-0.061,0.67-0.11,1.029h0.03
			c0.329-0.659,0.859-1.14,1.529-1.14c0.079,0,0.17,0.011,0.249,0.021l-0.229,1.139c-0.06-0.01-0.14-0.02-0.22-0.02
			c-0.83,0-1.359,0.84-1.549,1.879l-0.37,1.959H502.324z"/>
		<path d="M509.232,400.229c-0.279,0.14-0.779,0.27-1.399,0.27c-1.219,0-1.969-0.779-1.969-1.938c0-1.699,1.29-3.139,3.099-3.139
			c0.43,0,0.81,0.11,0.989,0.19l-0.3,0.909c-0.18-0.08-0.41-0.149-0.729-0.149c-1.13,0-1.839,1.039-1.839,2.049
			c0,0.729,0.42,1.139,1.069,1.139c0.449,0,0.789-0.12,1.039-0.229L509.232,400.229z"/>
		<path d="M513.771,400.119c-0.479,0.25-1.129,0.38-1.719,0.38c-1.35,0-1.999-0.819-1.999-2.009c0-1.469,1.079-3.068,2.759-3.068
			c0.959,0,1.569,0.56,1.569,1.369c0,1.25-1.31,1.649-3.188,1.609c-0.021,0.17,0.02,0.5,0.13,0.689c0.189,0.33,0.539,0.5,0.999,0.5
			c0.55,0,0.989-0.14,1.34-0.319L513.771,400.119z M512.662,396.292c-0.729,0-1.209,0.649-1.349,1.239
			c1.199,0.02,1.969-0.15,1.969-0.729C513.282,396.481,513.032,396.292,512.662,396.292z"/>
		<path d="M514.733,399.8c0-0.47,0.34-0.859,0.82-0.859c0.42,0,0.699,0.31,0.699,0.729c0,0.479-0.34,0.84-0.819,0.84
			C515.014,400.51,514.733,400.199,514.733,399.8z M515.373,396.432c0-0.46,0.34-0.859,0.82-0.859c0.42,0,0.699,0.31,0.699,0.739
			c0,0.47-0.34,0.83-0.819,0.83C515.653,397.142,515.373,396.831,515.373,396.432z"/>
		<path d="M521.423,393.663l-0.75,3.928c-0.05,0.25-0.08,0.53-0.08,0.819c0.01,0.69,0.42,1.12,1.109,1.12
			c0.83,0,1.399-0.561,1.659-1.93l0.75-3.938h1.169l-0.75,3.918c-0.39,2.028-1.329,2.929-2.978,2.929
			c-1.27,0-2.119-0.66-2.119-2.079c0-0.29,0.04-0.62,0.09-0.93l0.729-3.838H521.423z"/>
		<path d="M525.345,400.399l0.629-3.358c0.12-0.579,0.19-1.089,0.25-1.509h1.029l-0.1,0.879h0.021
			c0.449-0.659,1.069-0.989,1.749-0.989c0.689,0,1.239,0.42,1.239,1.34c0,0.22-0.04,0.56-0.09,0.81l-0.54,2.828h-1.159l0.52-2.748
			c0.03-0.181,0.06-0.391,0.06-0.58c0-0.399-0.149-0.699-0.609-0.699c-0.529,0-1.209,0.64-1.419,1.778l-0.42,2.249H525.345z"/>
		<path d="M530.844,400.399l0.919-4.867h1.17l-0.93,4.867H530.844z M531.953,394.213c0-0.42,0.319-0.71,0.699-0.71
			c0.36,0,0.62,0.26,0.62,0.63c-0.011,0.43-0.33,0.699-0.72,0.699C532.192,394.832,531.942,394.572,531.953,394.213z"/>
		<path d="M535.822,394.192l-0.25,1.34h1.1l-0.18,0.899h-1.09l-0.39,1.969c-0.04,0.23-0.08,0.479-0.08,0.689
			c0,0.26,0.12,0.43,0.43,0.43c0.141,0,0.28,0,0.4-0.02l-0.11,0.909c-0.17,0.061-0.479,0.101-0.76,0.101
			c-0.799,0-1.159-0.44-1.159-1c0-0.279,0.03-0.55,0.11-0.909l0.419-2.169h-0.659l0.17-0.899h0.659l0.2-1.05L535.822,394.192z"/>
		<path d="M540.432,400.119c-0.479,0.25-1.129,0.38-1.719,0.38c-1.35,0-1.999-0.819-1.999-2.009c0-1.469,1.079-3.068,2.759-3.068
			c0.959,0,1.569,0.56,1.569,1.369c0,1.25-1.31,1.649-3.188,1.609c-0.021,0.17,0.02,0.5,0.13,0.689c0.189,0.33,0.539,0.5,0.999,0.5
			c0.55,0,0.989-0.14,1.34-0.319L540.432,400.119z M539.322,396.292c-0.729,0-1.209,0.649-1.349,1.239
			c1.199,0.02,1.969-0.15,1.969-0.729C539.942,396.481,539.692,396.292,539.322,396.292z"/>
		<path d="M546.9,393.304l-1.02,5.366c-0.11,0.561-0.189,1.2-0.22,1.729h-1.069l0.1-0.869h-0.02c-0.44,0.669-1.04,0.979-1.67,0.979
			c-0.869,0-1.479-0.71-1.479-1.81c0-1.709,1.249-3.278,3.038-3.278c0.25,0,0.54,0.05,0.75,0.141l0.43-2.259H546.9z
			 M545.142,396.512c-0.141-0.101-0.38-0.19-0.67-0.19c-0.999,0-1.739,1.109-1.739,2.199c0,0.59,0.23,1.05,0.779,1.05
			c0.521,0,1.14-0.57,1.34-1.579L545.142,396.512z"/>
		<path d="M548.744,400.399l1.279-6.736h1.339l1.18,3.128c0.289,0.82,0.459,1.439,0.609,2.109h0.02c0.04-0.66,0.12-1.31,0.3-2.279
			l0.561-2.958h1.099l-1.279,6.736h-1.188l-1.21-3.188c-0.31-0.879-0.479-1.429-0.64-2.169l-0.04,0.011
			c-0.069,0.64-0.21,1.469-0.39,2.469l-0.55,2.878H548.744z"/>
		<path d="M558.412,400.399c0.01-0.29,0.05-0.68,0.09-1.1h-0.03c-0.479,0.899-1.119,1.21-1.739,1.21
			c-0.869,0-1.438-0.68-1.438-1.659c0-1.659,1.159-3.429,3.428-3.429c0.529,0,1.1,0.101,1.469,0.22l-0.499,2.539
			c-0.141,0.729-0.22,1.639-0.2,2.219H558.412z M558.892,396.372c-0.12-0.03-0.27-0.051-0.479-0.051c-1.08,0-1.909,1.21-1.909,2.319
			c0,0.51,0.189,0.93,0.699,0.93c0.54,0,1.199-0.68,1.43-1.919L558.892,396.372z"/>
		<path d="M563.102,394.192l-0.25,1.34h1.1l-0.18,0.899h-1.09l-0.39,1.969c-0.04,0.23-0.08,0.479-0.08,0.689
			c0,0.26,0.12,0.43,0.43,0.43c0.141,0,0.28,0,0.4-0.02l-0.11,0.909c-0.17,0.061-0.479,0.101-0.76,0.101
			c-0.799,0-1.159-0.44-1.159-1c0-0.279,0.03-0.55,0.11-0.909l0.419-2.169h-0.659l0.17-0.899h0.659l0.2-1.05L563.102,394.192z"/>
		<path d="M563.943,400.399l0.919-4.867h1.17l-0.93,4.867H563.943z M565.053,394.213c0-0.42,0.319-0.71,0.699-0.71
			c0.36,0,0.62,0.26,0.62,0.63c-0.011,0.43-0.33,0.699-0.72,0.699C565.292,394.832,565.042,394.572,565.053,394.213z"/>
		<path d="M571.36,397.441c0,1.648-1.159,3.068-2.818,3.068c-1.229,0-1.989-0.85-1.989-2.01c0-1.648,1.149-3.078,2.809-3.078
			C570.671,395.422,571.36,396.361,571.36,397.441z M567.753,398.471c0,0.669,0.359,1.139,0.949,1.139
			c0.869,0,1.449-1.199,1.449-2.168c0-0.5-0.22-1.12-0.93-1.12C568.292,396.321,567.753,397.561,567.753,398.471z"/>
		<path d="M571.863,400.399l0.629-3.358c0.12-0.579,0.19-1.089,0.25-1.509h1.029l-0.1,0.879h0.021
			c0.449-0.659,1.069-0.989,1.749-0.989c0.689,0,1.239,0.42,1.239,1.34c0,0.22-0.04,0.56-0.09,0.81l-0.54,2.828h-1.159l0.52-2.748
			c0.03-0.181,0.06-0.391,0.06-0.58c0-0.399-0.149-0.699-0.609-0.699c-0.529,0-1.209,0.64-1.419,1.778l-0.42,2.249H571.863z"/>
		<path d="M577.482,399.31c0.25,0.141,0.73,0.33,1.17,0.33c0.47-0.01,0.75-0.279,0.75-0.6c0-0.31-0.16-0.5-0.641-0.749
			c-0.56-0.29-0.959-0.71-0.959-1.27c0-0.939,0.819-1.6,1.969-1.6c0.51,0,0.93,0.12,1.149,0.25l-0.3,0.84
			c-0.18-0.101-0.51-0.22-0.909-0.22c-0.44,0-0.74,0.239-0.74,0.569c0,0.27,0.221,0.46,0.63,0.67c0.53,0.29,1.01,0.689,1.01,1.309
			c0,1.07-0.899,1.659-2.069,1.659c-0.569,0-1.099-0.159-1.359-0.35L577.482,399.31z"/>
		<path d="M589.719,396.342c0,1.199-0.43,2.438-1.219,3.218c-0.609,0.6-1.43,0.95-2.409,0.95c-1.738,0-2.648-1.27-2.648-2.779
			c0-1.199,0.45-2.458,1.26-3.238c0.609-0.589,1.459-0.939,2.368-0.939C588.87,393.553,589.719,394.803,589.719,396.342z
			 M585.602,395.112c-0.59,0.59-0.93,1.689-0.93,2.559c0,1.02,0.46,1.859,1.589,1.859c0.49,0,0.96-0.21,1.31-0.57
			c0.58-0.579,0.909-1.729,0.909-2.578c0-0.89-0.31-1.85-1.549-1.85C586.411,394.532,585.961,394.753,585.602,395.112z"/>
		<path d="M597.698,394.373c-0.22-0.11-0.59-0.23-1.02-0.23c-0.85,0-1.18,0.56-1.289,1.18l-0.03,0.21h2.719l-0.92,4.867h-1.169
			l0.749-3.968h-1.549l-0.739,3.968h-1.17l0.75-3.968h-1.759l-0.75,3.968h-1.159l0.75-3.968h-0.64l0.17-0.899h0.64l0.05-0.22
			c0.109-0.55,0.329-1.09,0.709-1.47c0.32-0.329,0.77-0.539,1.38-0.539c0.34,0,0.659,0.119,0.81,0.21l-0.4,0.859
			c-0.12-0.07-0.279-0.12-0.439-0.12c-0.22,0-0.39,0.069-0.529,0.2c-0.2,0.199-0.32,0.529-0.391,0.899l-0.029,0.18h1.769l0.04-0.22
			c0.25-1.34,1.18-2.119,2.539-2.119c0.51,0,1.029,0.14,1.239,0.27L597.698,394.373z"/>
		<path d="M601.96,400.229c-0.279,0.14-0.779,0.27-1.399,0.27c-1.219,0-1.969-0.779-1.969-1.938c0-1.699,1.289-3.139,3.099-3.139
			c0.43,0,0.81,0.11,0.989,0.19l-0.3,0.909c-0.18-0.08-0.41-0.149-0.729-0.149c-1.129,0-1.839,1.039-1.839,2.049
			c0,0.729,0.42,1.139,1.069,1.139c0.449,0,0.789-0.12,1.039-0.229L601.96,400.229z"/>
		<path d="M606.5,400.119c-0.479,0.25-1.129,0.38-1.719,0.38c-1.35,0-1.999-0.819-1.999-2.009c0-1.469,1.079-3.068,2.759-3.068
			c0.959,0,1.569,0.56,1.569,1.369c0,1.25-1.31,1.649-3.188,1.609c-0.021,0.17,0.02,0.5,0.13,0.689c0.189,0.33,0.539,0.5,0.999,0.5
			c0.55,0,0.989-0.14,1.34-0.319L606.5,400.119z M605.391,396.292c-0.729,0-1.209,0.649-1.349,1.239
			c1.199,0.02,1.969-0.15,1.969-0.729C606.011,396.481,605.761,396.292,605.391,396.292z"/>
		<path d="M614.229,397.441c0,1.648-1.159,3.068-2.818,3.068c-1.229,0-1.989-0.85-1.989-2.01c0-1.648,1.149-3.078,2.809-3.078
			C613.54,395.422,614.229,396.361,614.229,397.441z M610.622,398.471c0,0.669,0.359,1.139,0.949,1.139
			c0.869,0,1.449-1.199,1.449-2.168c0-0.5-0.22-1.12-0.93-1.12C611.161,396.321,610.622,397.561,610.622,398.471z"/>
		<path d="M614.732,400.399l0.629-3.358c0.12-0.579,0.19-1.089,0.25-1.509h1.029l-0.1,0.879h0.021
			c0.449-0.659,1.069-0.989,1.749-0.989c0.689,0,1.239,0.42,1.239,1.34c0,0.22-0.04,0.56-0.09,0.81l-0.54,2.828h-1.159l0.52-2.748
			c0.03-0.181,0.06-0.391,0.06-0.58c0-0.399-0.149-0.699-0.609-0.699c-0.529,0-1.209,0.64-1.419,1.778l-0.42,2.249H614.732z"/>
		<path d="M623.371,393.763c0.55-0.1,1.149-0.149,1.779-0.149c1.079,0,1.929,0.279,2.469,0.81c0.46,0.42,0.77,1.049,0.77,1.979
			c0,1.27-0.52,2.429-1.369,3.129c-0.779,0.64-1.77,0.909-3.148,0.909c-0.71,0-1.369-0.05-1.749-0.1L623.371,393.763z
			 M623.461,399.45c0.23,0.029,0.48,0.04,0.74,0.04c0.909,0,1.639-0.29,2.129-0.83c0.529-0.56,0.8-1.359,0.8-2.238
			c0-1.12-0.59-1.869-1.999-1.869c-0.271,0-0.56,0.02-0.75,0.06L623.461,399.45z"/>
		<path d="M628.772,400.399l0.569-2.998c0.13-0.689,0.189-1.43,0.25-1.869h1.01c-0.03,0.33-0.061,0.67-0.11,1.029h0.03
			c0.329-0.659,0.859-1.14,1.529-1.14c0.079,0,0.17,0.011,0.249,0.021l-0.229,1.139c-0.06-0.01-0.14-0.02-0.22-0.02
			c-0.83,0-1.359,0.84-1.549,1.879l-0.37,1.959H628.772z"/>
		<path d="M637.279,395.532l-0.64,3.358c-0.11,0.579-0.18,1.089-0.24,1.509h-1.029l0.1-0.85h-0.02c-0.47,0.63-1.079,0.96-1.689,0.96
			c-0.709,0-1.269-0.38-1.269-1.38c0-0.26,0.029-0.539,0.1-0.869l0.52-2.729h1.159l-0.499,2.658c-0.051,0.24-0.08,0.479-0.08,0.67
			c0,0.399,0.159,0.689,0.619,0.689c0.54,0,1.17-0.64,1.359-1.649l0.45-2.368H637.279z"/>
		<path d="M637.812,401.269c0.29,0.17,0.83,0.29,1.289,0.29c0.76,0,1.34-0.359,1.579-1.489l0.12-0.55h-0.02
			c-0.4,0.58-0.91,0.86-1.529,0.86c-0.97,0-1.52-0.8-1.529-1.72c0-1.619,1.169-3.238,3.188-3.238c0.63,0,1.239,0.141,1.688,0.34
			l-0.739,4.018c-0.18,0.95-0.46,1.71-0.999,2.169c-0.51,0.42-1.2,0.54-1.81,0.54c-0.619,0-1.199-0.13-1.519-0.33L637.812,401.269z
			 M641.33,396.451c-0.12-0.06-0.37-0.119-0.64-0.119c-1.02,0-1.739,1.099-1.739,2.148c-0.01,0.51,0.2,0.989,0.779,0.989
			c0.58,0,1.159-0.689,1.329-1.569L641.33,396.451z"/>
		<path d="M643.172,399.31c0.249,0.141,0.729,0.33,1.169,0.33c0.47-0.01,0.749-0.279,0.749-0.6c0-0.31-0.159-0.5-0.639-0.749
			c-0.561-0.29-0.96-0.71-0.96-1.27c0-0.939,0.819-1.6,1.969-1.6c0.51,0,0.93,0.12,1.149,0.25l-0.3,0.84
			c-0.18-0.101-0.51-0.22-0.909-0.22c-0.44,0-0.74,0.239-0.74,0.569c0,0.27,0.221,0.46,0.63,0.67c0.53,0.29,1.01,0.689,1.01,1.309
			c0,1.07-0.899,1.659-2.069,1.659c-0.569,0-1.099-0.159-1.359-0.35L643.172,399.31z"/>
		<path d="M652.051,400.399c0.01-0.29,0.05-0.68,0.09-1.1h-0.03c-0.479,0.899-1.119,1.21-1.739,1.21
			c-0.869,0-1.438-0.68-1.438-1.659c0-1.659,1.159-3.429,3.428-3.429c0.529,0,1.1,0.101,1.469,0.22l-0.499,2.539
			c-0.141,0.729-0.22,1.639-0.2,2.219H652.051z M652.53,396.372c-0.12-0.03-0.27-0.051-0.479-0.051c-1.08,0-1.909,1.21-1.909,2.319
			c0,0.51,0.189,0.93,0.699,0.93c0.54,0,1.199-0.68,1.43-1.919L652.53,396.372z"/>
		<path d="M654.282,400.399l0.629-3.358c0.12-0.579,0.19-1.089,0.25-1.509h1.029l-0.1,0.879h0.021
			c0.449-0.659,1.069-0.989,1.749-0.989c0.689,0,1.239,0.42,1.239,1.34c0,0.22-0.04,0.56-0.09,0.81l-0.54,2.828h-1.159l0.52-2.748
			c0.03-0.181,0.06-0.391,0.06-0.58c0-0.399-0.149-0.699-0.609-0.699c-0.529,0-1.209,0.64-1.419,1.778l-0.42,2.249H654.282z"/>
		<path d="M665.249,393.304l-1.02,5.366c-0.11,0.561-0.189,1.2-0.22,1.729h-1.069l0.1-0.869h-0.02
			c-0.44,0.669-1.04,0.979-1.67,0.979c-0.869,0-1.479-0.71-1.479-1.81c0-1.709,1.249-3.278,3.038-3.278c0.25,0,0.54,0.05,0.75,0.141
			l0.43-2.259H665.249z M663.49,396.512c-0.141-0.101-0.38-0.19-0.67-0.19c-1,0-1.739,1.109-1.739,2.199
			c0,0.59,0.23,1.05,0.779,1.05c0.521,0,1.14-0.57,1.34-1.579L663.49,396.512z"/>
		<path d="M671.969,400.199c-0.359,0.16-0.97,0.3-1.759,0.3c-1.749,0-2.869-1.079-2.869-2.828c0-1.399,0.601-2.589,1.58-3.318
			c0.699-0.529,1.539-0.8,2.508-0.8c0.74,0,1.279,0.181,1.47,0.311l-0.34,0.939c-0.22-0.12-0.68-0.24-1.27-0.24
			c-0.64,0-1.259,0.22-1.719,0.62c-0.59,0.52-0.97,1.369-0.97,2.349c0,1.129,0.58,1.979,1.909,1.979c0.489,0,0.989-0.09,1.349-0.26
			L671.969,400.199z"/>
		<path d="M672.762,400.399l0.569-2.998c0.13-0.689,0.19-1.43,0.25-1.869h1.01c-0.03,0.33-0.061,0.67-0.11,1.029h0.03
			c0.329-0.659,0.859-1.14,1.529-1.14c0.079,0,0.17,0.011,0.249,0.021l-0.229,1.139c-0.06-0.01-0.14-0.02-0.22-0.02
			c-0.83,0-1.359,0.84-1.549,1.879l-0.37,1.959H672.762z"/>
		<path d="M676.231,400.399l0.919-4.867h1.17l-0.93,4.867H676.231z M677.341,394.213c0-0.42,0.319-0.71,0.699-0.71
			c0.36,0,0.62,0.26,0.62,0.63c-0.011,0.43-0.33,0.699-0.72,0.699C677.58,394.832,677.33,394.572,677.341,394.213z"/>
		<path d="M678.722,400.399l0.619-3.358c0.11-0.579,0.19-1.089,0.24-1.509h1.01l-0.101,0.85h0.01c0.46-0.649,1.06-0.96,1.689-0.96
			c0.76,0,1.109,0.48,1.149,1c0.43-0.67,1.05-0.989,1.719-1c0.67,0,1.189,0.43,1.189,1.3c0,0.21-0.04,0.569-0.08,0.829l-0.539,2.849
			h-1.13l0.51-2.719c0.03-0.199,0.07-0.42,0.07-0.619c0-0.41-0.17-0.689-0.6-0.689c-0.53,0-1.12,0.669-1.31,1.698l-0.439,2.329
			h-1.12l0.521-2.759c0.04-0.199,0.06-0.39,0.06-0.569c0-0.37-0.11-0.699-0.58-0.699c-0.539,0-1.159,0.729-1.339,1.719l-0.42,2.309
			H678.722z"/>
		<path d="M690.749,400.119c-0.479,0.25-1.129,0.38-1.719,0.38c-1.35,0-1.999-0.819-1.999-2.009c0-1.469,1.079-3.068,2.759-3.068
			c0.959,0,1.569,0.56,1.569,1.369c0,1.25-1.31,1.649-3.188,1.609c-0.021,0.17,0.02,0.5,0.13,0.689c0.189,0.33,0.539,0.5,0.999,0.5
			c0.55,0,0.989-0.14,1.34-0.319L690.749,400.119z M689.64,396.292c-0.729,0-1.209,0.649-1.349,1.239
			c1.199,0.02,1.969-0.15,1.969-0.729C690.26,396.481,690.01,396.292,689.64,396.292z"/>
	</g>
	<g>
		<path d="M502.023,376.458h2.115v4.175h0.042c0.21-0.364,0.434-0.7,0.644-1.037l2.144-3.138h2.619l-3.123,4.021l3.291,5.421h-2.493
			l-2.311-4.076l-0.813,0.994v3.082h-2.115V376.458z"/>
		<path d="M516.908,379.05c-0.027,0.435-0.056,1.009-0.056,2.031v3.824c0,1.316-0.266,2.395-1.036,3.081
			c-0.757,0.645-1.779,0.841-2.788,0.841c-0.896,0-1.849-0.183-2.465-0.532l0.42-1.611c0.435,0.252,1.19,0.519,1.989,0.519
			c1.009,0,1.779-0.546,1.779-1.807v-0.448h-0.028c-0.406,0.574-1.064,0.896-1.849,0.896c-1.695,0-2.9-1.373-2.9-3.349
			c0-2.199,1.429-3.6,3.11-3.6c0.938,0,1.526,0.406,1.877,0.967h0.027l0.07-0.813H516.908z M514.724,381.837
			c0-0.14-0.014-0.28-0.042-0.392c-0.154-0.561-0.561-0.938-1.148-0.938c-0.771,0-1.401,0.7-1.401,1.946
			c0,1.023,0.505,1.821,1.401,1.821c0.546,0,0.98-0.364,1.12-0.868c0.057-0.154,0.07-0.378,0.07-0.561V381.837z"/>
	</g>
</g>
</svg>
